<svg xmlns="http://www.w3.org/2000/svg" width="20" height="13" viewBox="0 0 20 13">
	<path fill="#399AD5" d="M1.9 8.6c0-.9-.6-1.4-1.9-1.4V5.8c.6 0 1.1-.1 1.4-.3.3-.2.5-.6.5-1V2.2c0-.8.3-1.3.8-1.7S3.9 0 4.9 0v1.3c-.5 0-.9.2-1.2.4s-.3.5-.3.9v2.2c0 1-.5 1.5-1.6 1.7v.1c1.1.2 1.6.7 1.6 1.7v2.2c0 .4.1.7.4.9.2.2.6.3 1.2.3V13c-1.1 0-1.9-.2-2.3-.6s-.7-1-.7-1.8v-2zM7.5 9.9c0-.6.4-.9.9-.9s.8.4.8.9-.3.9-.9.9c-.4 0-.8-.4-.8-.9zM11.1 9.9c0-.6.4-.9.9-.9s.8.4.8.9-.3.9-.9.9c-.5 0-.8-.4-.8-.9zM18.2 10.8c0 .8-.2 1.3-.7 1.7-.5.4-1.2.5-2.2.5v-1.3c.4 0 .8-.1 1-.3.2-.2.4-.5.4-.9v-2c0-.6.1-1 .4-1.4.2-.3.7-.5 1.2-.6-1.1-.2-1.6-.8-1.6-1.7V2.6c0-.4-.1-.7-.3-.9-.2-.2-.6-.3-1.1-.3V0c1 0 1.8.2 2.2.6s.7 1 .7 1.8v2.1c0 .5.1.8.4 1 .4.2.8.3 1.4.3v1.4c-.6 0-1 .1-1.3.3-.3.2-.5.6-.5 1v2.3z"/>
</svg>