<?xml version="1.0" encoding="utf-8"?><svg width="132" height="101" viewBox="0 0 132 101" xmlns="http://www.w3.org/2000/svg" xmlns:xlink="http://www.w3.org/1999/xlink"><svg height="12" width="19" viewBox="0 0 19 12" id="icon-arrows" x="112" y="46"><path d="M6.7 10.5c.4.4.4.9 0 1.3s-.9.4-1.3 0L.3 6.6c-.4-.3-.4-.9 0-1.3L5.5.2c.4-.3.9-.3 1.3 0 .4.4.4.9 0 1.3L2.5 6l4.2 4.5zM12.3 1.5c-.4-.4-.4-.9 0-1.3s.9-.4 1.3 0l5.2 5.1c.4.3.4.9 0 1.3l-5.2 5.1c-.4.3-.9.3-1.3 0-.4-.4-.4-.9 0-1.3L16.5 6l-4.2-4.5z"/></svg><svg height="21" width="28" viewBox="0 0 28 21" id="icon-chat" x="65" y="48"><path fill="#292929" opacity=".4" fill-rule="evenodd" d="M5.6 1.5c-2.2 0-4 1.8-4 4v6.4c0 2.2 1.8 4 4 4H21c.2 0 .3 0 .5.2l2.9 2.6c.5.5 1.3.2 1.3-.6V5.6c0-2.2-1.8-4-4-4-.1-.1-16.1-.1-16.1-.1m19.2 18.9c-.6 0-1.1-.2-1.6-.6l-2.6-2.2h-15C2.6 17.6 0 15 0 12V5.6C0 2.6 2.6 0 5.6 0h16c3 0 5.6 2.6 5.6 5.6v12.5c0 1.2-1.1 2.3-2.4 2.3"/><path fill="#292929" opacity=".4" fill-rule="evenodd" d="M7.1 10.27c-.3 0-.6-.2-.8-.29-.2-.21-.3-.5-.3-.8 0-.3.2-.61.3-.8.5-.5 1.3-.5 1.8 0 .2.19.3.5.3.8 0 .3-.2.59-.3.8-.3.09-.6.29-1 .29M13.1 10.27c-.3 0-.6-.2-.8-.29-.2-.21-.3-.5-.3-.8 0-.3.2-.61.3-.8.5-.5 1.3-.5 1.8 0 .2.19.3.5.3.8 0 .3-.2.59-.3.8-.3.09-.6.29-1 .29M20.1 10.27c-.3 0-.6-.2-.8-.29-.2-.21-.3-.5-.3-.8 0-.3.2-.61.3-.8.5-.5 1.3-.5 1.8 0 .2.19.3.5.3.8 0 .3-.2.59-.3.8-.3.09-.6.29-1 .29"/></svg><svg height="24" width="24" viewBox="0 0 24 24" id="icon-download" x="108"><path fill="#292929" opacity=".4" fill-rule="evenodd" d="M11.63 15.32c-.21 0-.5 0-.6-.19l-4.81-4.81c-.3-.3-.3-.8 0-1.09.31-.3.81-.3 1.11 0l4.2 4.2 4.19-4.2c.31-.3.81-.3 1.11 0 .3.29.3.79 0 1.09l-4.8 4.81c.1.19-.2.19-.4.19"/><path fill="#292929" opacity=".4" fill-rule="evenodd" d="M11.8 14.4c-.5 0-.8-.3-.8-.8V.8c0-.5.3-.8.8-.8s.8.3.8.8v12.8c0 .5-.3.8-.8.8M20 24H4c-2.2 0-4-1.8-4-4v-3.2c0-.5.3-.8.8-.8s.8.3.8.8V20c0 1.3 1.1 2.4 2.4 2.4h16c1.3 0 2.4-1.1 2.4-2.4v-3.2c0-.5.3-.8.8-.8s.8.3.8.8V20c0 2.2-1.7 4-4 4"/></svg><svg height="22" width="22" viewBox="0 0 22 22" id="icon-element" x="108" y="24"><path fill="#292929" opacity=".4" fill-rule="evenodd" d="M16 0v2h4v4h2V0h-6zm-4 2h2V0h-2v2zM8 2h2V0H8v2zM0 0v6h2V2h4V0H0zm20 10h2V8h-2v2zM0 10h2V8H0v2zm20 4h2v-2h-2v2zM0 14h2v-2H0v2zm20 2v4h-4v2h6v-6h-2zM0 16v6h6v-2H2v-4H0zm12 6h2v-2h-2v2zm-4 0h2v-2H8v2zm0 0"/></svg><svg height="29" width="29" viewBox="0 0 29 29" id="icon-flag" y="72"><path fill="#292929" opacity=".4" fill-rule="evenodd" d="M10.5 27H.8c-.5 0-.8.3-.8.8s.3.8.8.8h9.7c.3 0 .8-.3.8-.8s-.3-.8-.8-.8M21.9 13.6c-2.8 0-4.9-1.3-4.9-1.3-.2 0-2.6-1.5-5.8-1.5-1.8 0-3.5.5-4.6 1V2.9c.8-.3 2.5-1.2 4.6-1.2C14 1.7 16.1 3 16.1 3c.2 0 2.6 1.5 5.8 1.5 1.5 0 2.6-.3 3.6-.7l-2 4.4c-.2.3-.2.7 0 .8l2.5 3.6c-.8.5-2.3 1-4.1 1m6.1-1l-2.8-4L28 2.7c.2-.3 0-.7-.2-1-.3-.2-.7-.3-1-.2 0 0-2.1 1.3-4.9 1.3-2.8 0-4.9-1.3-4.9-1.3-.2 0-2.6-1.5-5.8-1.5C8 0 5.4 1.5 5.4 1.5c-.2.2-.3.5-.3.7v19.4H3.8c-.5 0-.8.3-.8.8s.3.8.8.8h4.1c.5 0 .8-.3.8-.8s-.3-.8-.8-.8H6.7v-8.1c.8-.3 2.5-1.2 4.6-1.2 2.8 0 4.9 1.3 4.9 1.3.2 0 2.6 1.5 5.8 1.5 3.1 0 5.8-1.5 5.8-1.5.2-.2.3-.3.3-.5s0-.3-.1-.5"/></svg><svg height="23" width="26" viewBox="0 0 26 23" id="icon-folder" x="56" y="72"><path fill="#292929" opacity=".4" fill-rule="evenodd" d="M2.4 1.6c-.5 0-.8.3-.8.8V20c0 .5.3.8.8.8h20.8c.5 0 .8-.3.8-.8V7.2c0-.5-.3-.8-.8-.8H12c-1.3 0-2.4-1.1-2.4-2.4V2.4c0-.5-.3-.8-.8-.8H2.4zm20.8 20.8H2.4C1.1 22.4 0 21.3 0 20V2.4C0 1.1 1.1 0 2.4 0h6.4c1.3 0 2.4 1.1 2.4 2.4V4c0 .5.3.8.8.8h11.2c1.3 0 2.4 1.1 2.4 2.4V20c0 1.3-1.1 2.4-2.4 2.4zm0 0"/><path fill="#292929" opacity=".4" fill-rule="evenodd" d="M13.8 14.8h2.4c.5 0 .8-.3.8-.8s-.3-.8-.8-.8h-2.4v-2.4c0-.5-.3-.8-.8-.8s-.8.3-.8.8v2.4H9.8c-.5 0-.8.3-.8.8s.3.8.8.8h2.4v2.4c0 .5.3.8.8.8s.8-.3.8-.8v-2.4zm0 0"/></svg><svg height="26" width="27" viewBox="0 0 27 26" id="icon-github" x="29" y="72"><path fill="#231f20" fill-rule="evenodd" d="M13.19.26C5.91.26 0 6.17 0 13.46c0 5.83 3.78 10.77 9.02 12.52.66.12.9-.29.9-.64 0-.31-.01-1.14-.01-2.24-3.67.79-4.45-1.77-4.45-1.77C4.86 19.8 4 19.4 4 19.4c-1.2-.82.09-.8.09-.8 1.32.09 2.02 1.36 2.02 1.36 1.18 2.01 3.09 1.43 3.84 1.09.12-.85.46-1.43.84-1.76-2.93-.33-6.01-1.47-6.01-6.52 0-1.44.51-2.62 1.35-3.54-.13-.34-.58-1.68.13-3.49 0 0 1.11-.36 3.63 1.35 1.05-.29 2.18-.44 3.31-.45 1.12.01 2.24.16 3.3.45 2.52-1.71 3.62-1.35 3.62-1.35.72 1.81.27 3.15.13 3.49.85.92 1.36 2.1 1.36 3.54 0 5.07-3.08 6.18-6.02 6.51.47.41.89 1.21.89 2.44 0 1.77-.01 3.19-.01 3.62 0 .35.23.76.9.64 5.24-1.75 9.02-6.69 9.02-12.52 0-7.29-5.91-13.2-13.2-13.2"/></svg><svg height="20" width="4" viewBox="0 0 4 20" id="icon-gripper" x="108" y="46"><path fill="#d8d8d8" fill-rule="evenodd" d="M2 4c1.1 0 2-.9 2-2s-.9-2-2-2-2 .9-2 2 .9 2 2 2zm0 8c1.1 0 2-.9 2-2s-.9-2-2-2-2 .9-2 2 .9 2 2 2zm0 8c1.1 0 2-.9 2-2s-.9-2-2-2-2 .9-2 2 .9 2 2 2zm0 0"/></svg><svg height="72" width="65" viewBox="0 0 65 72" id="icon-hexagon"><path stroke="#dedede" fill="none" d="M1 49.2V22.49c0-2.91 1.55-5.59 4.07-7.05L28.2 2.09a8.14 8.14 0 0 1 8.13 0l23.13 13.35a8.143 8.143 0 0 1 4.07 7.05V49.2c0 2.9-1.55 5.59-4.07 7.04L36.33 69.6a8.14 8.14 0 0 1-8.13 0L5.07 56.24A8.127 8.127 0 0 1 1 49.2zm0 0"/></svg><svg width="43" height="48" viewBox="0 0 256 282" preserveAspectRatio="xMinYMin meet" id="icon-nodejs" x="65"><g fill="#8CC84B"><path d="M116.504 3.58c6.962-3.985 16.03-4.003 22.986 0 34.995 19.774 70 39.517 104.99 59.303 6.58 3.707 10.983 11.03 10.916 18.614v118.968c.05 7.897-4.788 15.396-11.73 19.02-34.88 19.664-69.743 39.353-104.617 59.018-7.107 4.063-16.357 3.75-23.24-.646-10.458-6.062-20.933-12.094-31.39-18.15-2.138-1.274-4.547-2.288-6.056-4.36 1.334-1.798 3.72-2.022 5.657-2.807 4.366-1.388 8.375-3.616 12.385-5.778 1.014-.694 2.252-.428 3.224.193 8.94 5.127 17.804 10.403 26.776 15.48 1.914 1.106 3.852-.36 5.488-1.273 34.228-19.345 68.498-38.617 102.72-57.968 1.268-.61 1.97-1.956 1.866-3.345.024-39.246.006-78.498.012-117.743.145-1.576-.767-3.025-2.192-3.67-34.76-19.575-69.5-39.18-104.253-58.76a3.62 3.62 0 0 0-4.094-.006C91.2 39.258 56.465 58.88 21.713 78.455c-1.42.646-2.374 2.07-2.205 3.653.006 39.245 0 78.497 0 117.748a3.33 3.33 0 0 0 1.89 3.303c9.274 5.26 18.56 10.48 27.84 15.722 5.228 2.814 11.647 4.486 17.407 2.33 5.083-1.823 8.646-7.01 8.55-12.407.047-39.016-.025-78.038.035-117.048-.127-1.732 1.516-3.163 3.2-3 4.456-.03 8.918-.06 13.374.012 1.86-.042 3.14 1.823 2.91 3.568-.018 39.263.048 78.527-.03 117.79.012 10.464-4.287 21.85-13.966 26.97-11.924 6.177-26.662 4.867-38.442-1.056-10.198-5.09-19.93-11.098-29.947-16.55C5.367 215.885.554 208.356.603 200.465V81.497c-.073-7.74 4.504-15.197 11.29-18.85C46.768 42.966 81.636 23.27 116.504 3.58z"/><path d="M146.928 85.99c15.21-.98 31.493-.58 45.18 6.913 10.597 5.742 16.472 17.793 16.66 29.566-.297 1.587-1.957 2.463-3.473 2.354-4.413-.006-8.827.06-13.24-.03-1.872.072-2.96-1.654-3.195-3.31-1.268-5.632-4.34-11.21-9.642-13.928-8.14-4.075-17.576-3.87-26.45-3.785-6.48.345-13.447.906-18.936 4.716-4.214 2.886-5.494 8.712-3.99 13.404 1.418 3.37 5.307 4.456 8.49 5.458 18.33 4.794 37.753 4.317 55.733 10.626 7.444 2.572 14.726 7.572 17.274 15.366 3.332 10.446 1.87 22.932-5.562 31.318-6.026 6.9-14.804 10.657-23.56 12.697-11.646 2.597-23.733 2.663-35.56 1.51-11.123-1.268-22.697-4.19-31.283-11.768-7.342-6.375-10.928-16.308-10.572-25.895.085-1.62 1.697-2.748 3.248-2.615 4.445-.036 8.89-.048 13.333.006 1.775-.127 3.09 1.407 3.182 3.08.82 5.367 2.837 11 7.517 14.182 9.032 5.827 20.365 5.428 30.707 5.59 8.567-.38 18.185-.494 25.177-6.157 3.69-3.23 4.782-8.634 3.785-13.283-1.08-3.925-5.186-5.754-8.712-6.95-18.095-5.724-37.736-3.647-55.656-10.12-7.275-2.57-14.31-7.432-17.105-14.906-3.9-10.58-2.114-23.663 6.097-31.766 8.006-8.06 19.563-11.164 30.55-12.275z"/></g></svg></svg>