<?xml version="1.0" encoding="utf-8"?><svg width="165" height="129" viewBox="0 0 165 129" xmlns="http://www.w3.org/2000/svg" xmlns:xlink="http://www.w3.org/1999/xlink"><svg height="12" width="19" viewBox="0 0 19 12" id="icon-arrows" x="141" y="98"><path fill="#989898" d="M6.7 10.5c.4.4.4.9 0 1.3s-.9.4-1.3 0L.3 6.6c-.4-.3-.4-.9 0-1.3L5.5.2c.4-.3.9-.3 1.3 0 .4.4.4.9 0 1.3L2.5 6l4.2 4.5zM12.3 1.5c-.4-.4-.4-.9 0-1.3s.9-.4 1.3 0l5.2 5.1c.4.3.4.9 0 1.3l-5.2 5.1c-.4.3-.9.3-1.3 0-.4-.4-.4-.9 0-1.3L16.5 6l-4.2-4.5z"/></svg><svg height="12" width="19" viewBox="0 0 19 12" id="icon-arrows-active" x="141" y="86"><path fill="#29aae2" d="M6.7 10.5c.4.4.4.9 0 1.3s-.9.4-1.3 0L.3 6.6c-.4-.3-.4-.9 0-1.3L5.5.2c.4-.3.9-.3 1.3 0 .4.4.4.9 0 1.3L2.5 6l4.2 4.5zM12.3 1.5c-.4-.4-.4-.9 0-1.3s.9-.4 1.3 0l5.2 5.1c.4.3.4.9 0 1.3l-5.2 5.1c-.4.3-.9.3-1.3 0-.4-.4-.4-.9 0-1.3L16.5 6l-4.2-4.5z"/></svg><svg id="icon-categories" viewBox="0 0 30 30" width="30" height="30" y="98.3"><style>.cst0{fill:none;stroke:#999;stroke-linecap:round;stroke-linejoin:round;stroke-miterlimit:10}</style><path class="cst0" d="M22.2 29H7.8L6.6 9.9h16.8L22.2 29zM24.6 9.9H5.4V5.1h19.2v4.8zM23.4 5.1H6.6l1.2-3.6h14.4l1.2 3.6zM6.9 14.7H23M7.4 21.8h15.2M12 18.3h6"/></svg><svg height="21" width="28" viewBox="0 0 28 21" id="icon-chat" x="34" y="75.3"><path fill="#292929" opacity=".4" fill-rule="evenodd" d="M5.6 1.5c-2.2 0-4 1.8-4 4v6.4c0 2.2 1.8 4 4 4H21c.2 0 .3 0 .5.2l2.9 2.6c.5.5 1.3.2 1.3-.6V5.6c0-2.2-1.8-4-4-4-.1-.1-16.1-.1-16.1-.1m19.2 18.9c-.6 0-1.1-.2-1.6-.6l-2.6-2.2h-15C2.6 17.6 0 15 0 12V5.6C0 2.6 2.6 0 5.6 0h16c3 0 5.6 2.6 5.6 5.6v12.5c0 1.2-1.1 2.3-2.4 2.3"/><path fill="#292929" opacity=".4" fill-rule="evenodd" d="M7.1 10.27c-.3 0-.6-.2-.8-.29-.2-.21-.3-.5-.3-.8 0-.3.2-.61.3-.8.5-.5 1.3-.5 1.8 0 .2.19.3.5.3.8 0 .3-.2.59-.3.8-.3.09-.6.29-1 .29M13.1 10.27c-.3 0-.6-.2-.8-.29-.2-.21-.3-.5-.3-.8 0-.3.2-.61.3-.8.5-.5 1.3-.5 1.8 0 .2.19.3.5.3.8 0 .3-.2.59-.3.8-.3.09-.6.29-1 .29M20.1 10.27c-.3 0-.6-.2-.8-.29-.2-.21-.3-.5-.3-.8 0-.3.2-.61.3-.8.5-.5 1.3-.5 1.8 0 .2.19.3.5.3.8 0 .3-.2.59-.3.8-.3.09-.6.29-1 .29"/></svg><svg id="icon-desc" viewBox="0 0 30 30" width="30" height="30" x="111" y="60"><style>.est0{fill:none;stroke:#999;stroke-linecap:round;stroke-linejoin:round;stroke-miterlimit:10}</style><path class="est0" d="M28.5 25.8c0 .7-.5 1.2-1.2 1.2H2.7c-.6 0-1.2-.5-1.2-1.2V9.1c0-.7.5-1.2 1.2-1.2h24.7c.6 0 1.2.5 1.2 1.2v16.7h-.1zM10.9 7.9V3.7c0-.3.3-.6.6-.6h7c.3 0 .6.3.6.6v4.2m-8.2-2.4h8.2M5 12.7h20M5 17.4h20M5 22.2h20"/></svg><svg height="24" width="24" viewBox="0 0 24 24" id="icon-download" x="141"><path fill="#292929" opacity=".4" fill-rule="evenodd" d="M11.63 15.32c-.21 0-.5 0-.6-.19l-4.81-4.81c-.3-.3-.3-.8 0-1.09.31-.3.81-.3 1.11 0l4.2 4.2 4.19-4.2c.31-.3.81-.3 1.11 0 .3.29.3.79 0 1.09l-4.8 4.81c.1.19-.2.19-.4.19"/><path fill="#292929" opacity=".4" fill-rule="evenodd" d="M11.8 14.4c-.5 0-.8-.3-.8-.8V.8c0-.5.3-.8.8-.8s.8.3.8.8v12.8c0 .5-.3.8-.8.8M20 24H4c-2.2 0-4-1.8-4-4v-3.2c0-.5.3-.8.8-.8s.8.3.8.8V20c0 1.3 1.1 2.4 2.4 2.4h16c1.3 0 2.4-1.1 2.4-2.4v-3.2c0-.5.3-.8.8-.8s.8.3.8.8V20c0 2.2-1.7 4-4 4"/></svg><svg height="22" width="22" viewBox="0 0 22 22" id="icon-element" x="141" y="24"><path fill="#292929" opacity=".4" fill-rule="evenodd" d="M16 0v2h4v4h2V0h-6zm-4 2h2V0h-2v2zM8 2h2V0H8v2zM0 0v6h2V2h4V0H0zm20 10h2V8h-2v2zM0 10h2V8H0v2zm20 4h2v-2h-2v2zM0 14h2v-2H0v2zm20 2v4h-4v2h6v-6h-2zM0 16v6h6v-2H2v-4H0zm12 6h2v-2h-2v2zm-4 0h2v-2H8v2zm0 0"/></svg><svg height="29" width="29" viewBox="0 0 29 29" id="icon-flag" x="30" y="98.3"><path fill="#292929" opacity=".4" fill-rule="evenodd" d="M10.5 27H.8c-.5 0-.8.3-.8.8s.3.8.8.8h9.7c.3 0 .8-.3.8-.8s-.3-.8-.8-.8M21.9 13.6c-2.8 0-4.9-1.3-4.9-1.3-.2 0-2.6-1.5-5.8-1.5-1.8 0-3.5.5-4.6 1V2.9c.8-.3 2.5-1.2 4.6-1.2C14 1.7 16.1 3 16.1 3c.2 0 2.6 1.5 5.8 1.5 1.5 0 2.6-.3 3.6-.7l-2 4.4c-.2.3-.2.7 0 .8l2.5 3.6c-.8.5-2.3 1-4.1 1m6.1-1l-2.8-4L28 2.7c.2-.3 0-.7-.2-1-.3-.2-.7-.3-1-.2 0 0-2.1 1.3-4.9 1.3-2.8 0-4.9-1.3-4.9-1.3-.2 0-2.6-1.5-5.8-1.5C8 0 5.4 1.5 5.4 1.5c-.2.2-.3.5-.3.7v19.4H3.8c-.5 0-.8.3-.8.8s.3.8.8.8h4.1c.5 0 .8-.3.8-.8s-.3-.8-.8-.8H6.7v-8.1c.8-.3 2.5-1.2 4.6-1.2 2.8 0 4.9 1.3 4.9 1.3.2 0 2.6 1.5 5.8 1.5 3.1 0 5.8-1.5 5.8-1.5.2-.2.3-.3.3-.5s0-.3-.1-.5"/></svg><svg height="23" width="26" viewBox="0 0 26 23" id="icon-folder" x="86" y="98.3"><path fill="#292929" opacity=".4" fill-rule="evenodd" d="M2.4 1.6c-.5 0-.8.3-.8.8V20c0 .5.3.8.8.8h20.8c.5 0 .8-.3.8-.8V7.2c0-.5-.3-.8-.8-.8H12c-1.3 0-2.4-1.1-2.4-2.4V2.4c0-.5-.3-.8-.8-.8H2.4zm20.8 20.8H2.4C1.1 22.4 0 21.3 0 20V2.4C0 1.1 1.1 0 2.4 0h6.4c1.3 0 2.4 1.1 2.4 2.4V4c0 .5.3.8.8.8h11.2c1.3 0 2.4 1.1 2.4 2.4V20c0 1.3-1.1 2.4-2.4 2.4zm0 0"/><path fill="#292929" opacity=".4" fill-rule="evenodd" d="M13.8 14.8h2.4c.5 0 .8-.3.8-.8s-.3-.8-.8-.8h-2.4v-2.4c0-.5-.3-.8-.8-.8s-.8.3-.8.8v2.4H9.8c-.5 0-.8.3-.8.8s.3.8.8.8h2.4v2.4c0 .5.3.8.8.8s.8-.3.8-.8v-2.4zm0 0"/></svg><svg height="26" width="27" viewBox="0 0 27 26" id="icon-github" x="59" y="98.3"><path fill="#231f20" fill-rule="evenodd" d="M13.19.26C5.91.26 0 6.17 0 13.46c0 5.83 3.78 10.77 9.02 12.52.66.12.9-.29.9-.64 0-.31-.01-1.14-.01-2.24-3.67.79-4.45-1.77-4.45-1.77C4.86 19.8 4 19.4 4 19.4c-1.2-.82.09-.8.09-.8 1.32.09 2.02 1.36 2.02 1.36 1.18 2.01 3.09 1.43 3.84 1.09.12-.85.46-1.43.84-1.76-2.93-.33-6.01-1.47-6.01-6.52 0-1.44.51-2.62 1.35-3.54-.13-.34-.58-1.68.13-3.49 0 0 1.11-.36 3.63 1.35 1.05-.29 2.18-.44 3.31-.45 1.12.01 2.24.16 3.3.45 2.52-1.71 3.62-1.35 3.62-1.35.72 1.81.27 3.15.13 3.49.85.92 1.36 2.1 1.36 3.54 0 5.07-3.08 6.18-6.02 6.51.47.41.89 1.21.89 2.44 0 1.77-.01 3.19-.01 3.62 0 .35.23.76.9.64 5.24-1.75 9.02-6.69 9.02-12.52 0-7.29-5.91-13.2-13.2-13.2"/></svg><svg height="20" width="4" viewBox="0 0 4 20" id="icon-gripper" x="156" y="46"><path fill="#d8d8d8" fill-rule="evenodd" d="M2 4c1.1 0 2-.9 2-2s-.9-2-2-2-2 .9-2 2 .9 2 2 2zm0 8c1.1 0 2-.9 2-2s-.9-2-2-2-2 .9-2 2 .9 2 2 2zm0 8c1.1 0 2-.9 2-2s-.9-2-2-2-2 .9-2 2 .9 2 2 2zm0 0"/></svg><svg width="10" height="16" id="icon-handle" viewBox="0 0 10 16" x="141" y="110"><style>.lst0{fill:#989898}</style><path class="lst0" d="M9.552 9.45h-3v-3h3zM9.552 15.45h-3v-3h3zM3.552 9.45h-3v-3h3zM9.552 3.45h-3v-3h3zM3.552 3.45h-3v-3h3zM3.552 15.45h-3v-3h3z"/></svg><svg id="icon-hexagon" viewBox="0 0 68 75.3" width="68" height="75.3"><style>.mst0{fill:none;stroke:#dedede}</style><path class="mst0" d="M2.5 50.9V24.2c0-2.9 1.6-5.6 4.1-7.1L29.7 3.8c2.5-1.4 5.6-1.4 8.1 0L61 17.1c2.5 1.5 4.1 4.1 4.1 7.1v26.7c0 2.9-1.5 5.6-4.1 7L37.8 71.3c-2.5 1.5-5.6 1.5-8.1 0L6.6 57.9a8.07 8.07 0 0 1-4.1-7z"/></svg><svg width="43" height="48" viewBox="0 0 256 282" preserveAspectRatio="xMinYMin meet" id="icon-nodejs" x="68"><g fill="#8CC84B"><path d="M116.504 3.58c6.962-3.985 16.03-4.003 22.986 0 34.995 19.774 70 39.517 104.99 59.303 6.58 3.707 10.983 11.03 10.916 18.614v118.968c.05 7.897-4.788 15.396-11.73 19.02-34.88 19.664-69.743 39.353-104.617 59.018-7.107 4.063-16.357 3.75-23.24-.646-10.458-6.062-20.933-12.094-31.39-18.15-2.138-1.274-4.547-2.288-6.056-4.36 1.334-1.798 3.72-2.022 5.657-2.807 4.366-1.388 8.375-3.616 12.385-5.778 1.014-.694 2.252-.428 3.224.193 8.94 5.127 17.804 10.403 26.776 15.48 1.914 1.106 3.852-.36 5.488-1.273 34.228-19.345 68.498-38.617 102.72-57.968 1.268-.61 1.97-1.956 1.866-3.345.024-39.246.006-78.498.012-117.743.145-1.576-.767-3.025-2.192-3.67-34.76-19.575-69.5-39.18-104.253-58.76a3.62 3.62 0 0 0-4.094-.006C91.2 39.258 56.465 58.88 21.713 78.455c-1.42.646-2.374 2.07-2.205 3.653.006 39.245 0 78.497 0 117.748a3.33 3.33 0 0 0 1.89 3.303c9.274 5.26 18.56 10.48 27.84 15.722 5.228 2.814 11.647 4.486 17.407 2.33 5.083-1.823 8.646-7.01 8.55-12.407.047-39.016-.025-78.038.035-117.048-.127-1.732 1.516-3.163 3.2-3 4.456-.03 8.918-.06 13.374.012 1.86-.042 3.14 1.823 2.91 3.568-.018 39.263.048 78.527-.03 117.79.012 10.464-4.287 21.85-13.966 26.97-11.924 6.177-26.662 4.867-38.442-1.056-10.198-5.09-19.93-11.098-29.947-16.55C5.367 215.885.554 208.356.603 200.465V81.497c-.073-7.74 4.504-15.197 11.29-18.85C46.768 42.966 81.636 23.27 116.504 3.58z"/><path d="M146.928 85.99c15.21-.98 31.493-.58 45.18 6.913 10.597 5.742 16.472 17.793 16.66 29.566-.297 1.587-1.957 2.463-3.473 2.354-4.413-.006-8.827.06-13.24-.03-1.872.072-2.96-1.654-3.195-3.31-1.268-5.632-4.34-11.21-9.642-13.928-8.14-4.075-17.576-3.87-26.45-3.785-6.48.345-13.447.906-18.936 4.716-4.214 2.886-5.494 8.712-3.99 13.404 1.418 3.37 5.307 4.456 8.49 5.458 18.33 4.794 37.753 4.317 55.733 10.626 7.444 2.572 14.726 7.572 17.274 15.366 3.332 10.446 1.87 22.932-5.562 31.318-6.026 6.9-14.804 10.657-23.56 12.697-11.646 2.597-23.733 2.663-35.56 1.51-11.123-1.268-22.697-4.19-31.283-11.768-7.342-6.375-10.928-16.308-10.572-25.895.085-1.62 1.697-2.748 3.248-2.615 4.445-.036 8.89-.048 13.333.006 1.775-.127 3.09 1.407 3.182 3.08.82 5.367 2.837 11 7.517 14.182 9.032 5.827 20.365 5.428 30.707 5.59 8.567-.38 18.185-.494 25.177-6.157 3.69-3.23 4.782-8.634 3.785-13.283-1.08-3.925-5.186-5.754-8.712-6.95-18.095-5.724-37.736-3.647-55.656-10.12-7.275-2.57-14.31-7.432-17.105-14.906-3.9-10.58-2.114-23.663 6.097-31.766 8.006-8.06 19.563-11.164 30.55-12.275z"/></g></svg><svg width="15" height="20" viewBox="0 0 24 28" id="icon-pencil" x="141" y="46"><path fill="#989898" d="M5.672 24l1.422-1.422-3.672-3.672L2 20.328V22h2v2h1.672zm8.172-14.5q0-.344-.344-.344-.156 0-.266.11l-8.47 8.468q-.108.11-.108.266 0 .344.344.344.156 0 .266-.11l8.47-8.468q.108-.11.108-.266zM13 6.5l6.5 6.5-13 13H0v-6.5zM23.672 8q0 .828-.578 1.406L20.5 12 14 5.5l2.594-2.578q.562-.594 1.406-.594.828 0 1.422.594l3.672 3.656q.578.61.578 1.422z"/></svg><svg width="15" height="20" viewBox="0 0 24 28" id="icon-pencil-active" x="141" y="66"><path fill="#29AAE2" d="M5.672 24l1.422-1.422-3.672-3.672L2 20.328V22h2v2h1.672zm8.172-14.5q0-.344-.344-.344-.156 0-.266.11l-8.47 8.468q-.108.11-.108.266 0 .344.344.344.156 0 .266-.11l8.47-8.468q.108-.11.108-.266zM13 6.5l6.5 6.5-13 13H0v-6.5zM23.672 8q0 .828-.578 1.406L20.5 12 14 5.5l2.594-2.578q.562-.594 1.406-.594.828 0 1.422.594l3.672 3.656q.578.61.578 1.422z"/></svg><svg id="icon-resize" viewBox="0 0 30 30" width="30" height="30" x="111"><style>.qst0{fill:none;stroke:#999;stroke-linecap:round;stroke-linejoin:round;stroke-miterlimit:10}</style><path class="qst0" d="M25.4 24.7V5.6H29v19.1h-3.6zM1 24.7V5.6h3.6v19.1H1zM16.9 15.1h6.7M20 18.7l3.6-3.6-3.6-3.6M13.1 15.1H6.4M10 11.5l-3.6 3.6 3.6 3.6"/></svg><svg id="icon-settings" viewBox="0 0 30 30" width="30" height="30" x="111" y="30"><style>.rst0{fill:none;stroke:#999;stroke-linecap:round;stroke-linejoin:round;stroke-miterlimit:10}</style><path class="rst0" d="M10.5 22L22 10.5c1.7.7 3.8.4 5.2-1 1.4-1.4 1.8-3.4 1-5.2L26 6.7h-2.5V4l2.3-2.3c-1.7-.7-3.8-.4-5.2 1-1.4 1.4-1.8 3.5-1 5.2L8 19.5c-1.7-.7-3.8-.4-5.2 1-1.4 1.4-1.8 3.5-1 5.2L4 23.4h2.7V26l-2.4 2.3c1.7.7 3.8.4 5.2-1 1.5-1.5 1.8-3.6 1-5.3z"/><path class="rst0" d="M15 12.5L10.5 8c.7-1.7.4-3.8-1-5.2C8.1 1.3 6.1 1 4.4 1.7L6.7 4v2.7H4L1.7 4.4C1 6.1 1.3 8.1 2.8 9.6s3.5 1.7 5.2 1l4.5 4.5M15 17.5l4.5 4.5c-.7 1.7-.4 3.8 1 5.2 1.4 1.4 3.5 1.8 5.2 1L23.4 26v-2.5H26l2.3 2.3c.7-1.7.4-3.8-1-5.2-1.4-1.4-3.5-1.8-5.2-1L17.5 15"/></svg><svg height="27" width="38" viewBox="0 0 38 27" id="icon-terminal" x="68" y="48"><path fill="#5595FC" d="M9.1 17.4c-.3.3-.3.8 0 1.1s.9.3 1.2 0l4.8-4.4c.3-.3.3-.8 0-1.1l-4.8-4.4c-.3-.3-.9-.3-1.2 0-.4.4-.4.9 0 1.2l4 3.8-4 3.8zM16.3 17.8c0-.5.4-.9.9-.9h6.5c.5 0 .9.4.9.9s-.4.9-.9.9h-6.5c-.5 0-.9-.4-.9-.9z"/><path fill="none" stroke="#5595FC" stroke-width="2" d="M1.3 6.6C1.3 3.5 3.8 1 6.9 1h24.3c3.1 0 5.6 2.5 5.6 5.6v14c0 3.1-2.5 5.6-5.6 5.6H6.9c-3.1 0-5.6-2.5-5.6-5.6v-14z"/></svg><svg height="23" width="34" viewBox="0 0 34 23" id="icon-terminal-small" y="75.3"><path fill="#5595fc" fill-rule="evenodd" d="M7.23 14.84c-.31.27-.31.7 0 .96.31.27.81.27 1.12 0l4.42-3.82c.31-.27.31-.69 0-.96L8.35 7.2a.876.876 0 0 0-1.12 0 .6.6 0 0 0 0 .95l3.63 3.35-3.63 3.34zm0 0M14 15c0-.55.44-1 1-1h5c.55 0 1 .44 1 1 0 .55-.44 1-1 1h-5c-.55 0-1-.44-1-1zm0 0"/><path stroke-width="2" stroke="#5595fc" fill="none" fill-rule="evenodd" d="M0 6c0-3.31 2.68-6 6-6h22c3.31 0 6 2.68 6 6v11c0 3.31-2.68 6-6 6H6c-3.31 0-6-2.68-6-6V6zm0 0"/></svg></svg>