<?xml version="1.0" encoding="utf-8"?>
<svg width="31" height="27" version="1.1" id="Layer_1" xmlns="http://www.w3.org/2000/svg" xmlns:xlink="http://www.w3.org/1999/xlink" x="0px" y="0px"
	 viewBox="0 0 31 27" enable-background="new 0 0 31 27" xml:space="preserve">
<path id="b" fill="#FFFFFF" d="M23.5,6.9c-1.1,0-2.2,0.3-3.2,0.7v-7h-3.9V14c0,3.9,3.2,7.1,7.1,7.1s7.1-3.2,7.1-7.1
	S27.4,6.9,23.5,6.9 M23.5,17.2c-1.8,0-3.2-1.4-3.2-3.2s1.4-3.2,3.2-3.2c1.8,0,3.2,1.4,3.2,3.2S25.2,17.2,23.5,17.2"/>
<path id="d" fill="#FFFFFF" d="M14.7,17.5c0-0.1-0.1-0.2-0.1-0.3c-0.2-0.7-0.3-1.5-0.3-2.2V6h-3.9v6.8c-0.7-0.3-1.6-0.5-2.5-0.5
	c-3.9,0-7.1,3.2-7.1,7.1s3.2,7.1,7.1,7.1c2.4,0,4.6-1.2,5.8-3.1c1.2,1.3,2.7,2.3,4.4,3.1l2-3.4l0,0C17.4,22.2,15.4,20,14.7,17.5
	 M7.9,22.5c-1.8,0-3.2-1.4-3.2-3.2c0-1.8,1.4-3.2,3.2-3.2s3.2,1.4,3.2,3.2C11,21.2,9.6,22.5,7.9,22.5"/>
</svg>
