<?xml version="1.0" encoding="utf-8"?>
<svg width="17" height="12" version="1.1" id="Layer_1" xmlns="http://www.w3.org/2000/svg" xmlns:xlink="http://www.w3.org/1999/xlink" x="0px" y="0px"
	 viewBox="0 0 17 12" enable-background="new 0 0 17 12" xml:space="preserve">
<path fill="#989898" d="M6.6,1.8L2.4,6l4.3,4.3c0.1,0.1,0.1,0.2,0.1,0.2s0,0.2-0.1,0.2l-0.5,0.5c-0.1,0.1-0.2,0.1-0.2,0.1
	c-0.1,0-0.2,0-0.2-0.1L0.5,6.3C0.5,6.2,0.4,6.1,0.4,6c0-0.1,0-0.2,0.1-0.2l5.1-5.1c0.1-0.1,0.2-0.1,0.2-0.1c0.1,0,0.2,0,0.2,0.1
	l0.5,0.5c0.1,0.1,0.1,0.2,0.1,0.2C6.7,1.6,6.7,1.7,6.6,1.8z"/>
<path fill="#989898" d="M16.5,6.3l-5.1,5.1c-0.1,0.1-0.2,0.1-0.2,0.1c-0.1,0-0.2,0-0.3-0.1l-0.5-0.5c-0.1-0.1-0.1-0.2-0.1-0.2
	c0-0.1,0-0.2,0.1-0.2L14.6,6l-4.3-4.3c-0.1-0.1-0.1-0.2-0.1-0.2s0-0.2,0.1-0.2l0.5-0.5c0.1-0.1,0.2-0.1,0.3-0.1c0.1,0,0.2,0,0.2,0.1
	l5.1,5.1c0.1,0.1,0.1,0.2,0.1,0.2C16.6,6.1,16.5,6.2,16.5,6.3z"/>
</svg>
