<?xml version="1.0" encoding="utf-8"?>
<svg width="25" height="8" version="1.1" id="Layer_1" xmlns="http://www.w3.org/2000/svg" xmlns:xlink="http://www.w3.org/1999/xlink" x="0px" y="0px"
	 viewBox="-2.1 4.5 25 8" enable-background="new -2.1 4.5 25 8" xml:space="preserve">
<path fill="#333333" d="M9.7,6c0,0.1,0,0.2-0.1,0.3l-5.1,5.5C4.4,11.9,4.3,12,4.2,12S4,11.9,4,11.8l-5.1-5.5C-1.2,6.2-1.2,6.1-1.2,6
	c0-0.1,0-0.2,0.1-0.3l0.5-0.6C-0.5,5.1-0.4,5-0.3,5s0.2,0,0.3,0.1l4.3,4.7l4.3-4.7C8.6,5.1,8.7,5,8.8,5c0.1,0,0.2,0,0.3,0.1l0.5,0.6
	C9.6,5.8,9.7,5.9,9.7,6z"/>
</svg>
