<svg xmlns="http://www.w3.org/2000/svg" width="12" height="13" viewBox="0 0 12 13">
	<path fill="#ff0000" d="M4.4 10.6v-6c0-.1 0-.1-.1-.2-.1 0-.1-.1-.2-.1h-.6c-.1 0-.1 0-.2.1v6.2c0 .1 0 .1.1.2s.1.1.2.1h.5c.1 0 .1 0 .2-.1 0-.1.1-.2.1-.2zm2.1 0v-6c0-.1 0-.1-.1-.2s0-.1-.1-.1h-.6c-.1 0-.1 0-.2.1s0 .1 0 .2v6c0 .1 0 .1.1.2s.1.1.2.1h.5c.1 0 .1 0 .2-.1s0-.2 0-.2zm2.2 0v-6c0-.1 0-.1-.1-.2l-.1-.1h-.6c-.1 0-.1 0-.2.1 0 .1-.1.1-.1.2v6c0 .1 0 .1.1.2s.1.1.2.1h.5c.1 0 .1 0 .2-.1s.1-.2.1-.2zM4.1 2.2h3.8l-.4-1c0-.1-.1-.1-.1-.1H4.7c-.1 0-.1 0-.1.1l-.5 1zm7.9.2V3c0 .1 0 .1-.1.2s-.1.1-.2.1h-.8v8c0 .5-.1.9-.4 1.2-.3.3-.6.5-1 .5h-7c-.4 0-.7-.2-1-.5s-.4-.7-.4-1.2v-8H.3c-.1 0-.1 0-.2-.1S0 3.1 0 3v-.6c0-.1 0-.1.1-.2s.1-.1.2-.1h2.6L3.5.7c.1-.2.2-.3.5-.5.2-.1.4-.2.6-.2h2.7c.3 0 .5.1.7.2s.4.3.5.5l.6 1.4h2.6c.1 0 .1 0 .2.1s.1.2.1.2z"/>
</svg>