<svg xmlns="http://www.w3.org/2000/svg" width="21" height="11" viewBox="0 0 21 11">
	<path fill="#399AD5" d="M6.4 1.2L2 5.5l4.4 4.3c.1.1.1.2.1.3s0 .2-.1.3l-.6.6h-.2s-.2 0-.3-.1L.1 5.8C0 5.7 0 5.6 0 5.5s0-.2.1-.3L5.3.1c.1-.1.2-.1.3-.1s.2 0 .3.1l.6.6c.1.1.1.2.1.3-.1 0-.1.1-.2.2zM20.9 5.8l-5.2 5.1c-.1.1-.2.1-.3.1-.1 0-.2 0-.3-.1l-.6-.6c-.1-.1-.1-.2-.1-.3 0-.1 0-.2.1-.3L19 5.5l-4.4-4.3c-.1-.1-.1-.2-.1-.3s0-.2.1-.3l.6-.6h.2c.1 0 .2 0 .3.1l5.2 5.1c.1.1.1.2.1.3s0 .2-.1.3zM7.5 7.6c0-.5.4-.9.9-.9s.9.4.9.9-.3.9-.9.9c-.6 0-.9-.3-.9-.9zM11 7.6c0-.5.4-.9.9-.9s.9.4.9.9-.3.9-.9.9c-.5 0-.9-.3-.9-.9z"/>
</svg>