<?xml version="1.0" encoding="utf-8"?>
<svg width="30" height="37" version="1.1" id="Layer_1" xmlns="http://www.w3.org/2000/svg" xmlns:xlink="http://www.w3.org/1999/xlink" x="0px" y="0px"
	 viewBox="0 0 30 27" enable-background="new 0 0 30 27" xml:space="preserve">
<path fill-rule="evenodd" clip-rule="evenodd" fill="#FFFFFF" d="M15,0.6C7.7,0.6,1.8,6.5,1.8,13.8c0,5.8,3.8,10.8,9,12.5
	c0.7,0.1,0.9-0.3,0.9-0.6c0-0.3,0-1.1,0-2.2c-3.7,0.8-4.4-1.8-4.4-1.8c-0.6-1.5-1.5-1.9-1.5-1.9c-1.2-0.8,0.1-0.8,0.1-0.8
	c1.3,0.1,2,1.4,2,1.4c1.2,2,3.1,1.4,3.8,1.1c0.1-0.9,0.5-1.4,0.8-1.8c-2.9-0.3-6-1.5-6-6.5c0-1.4,0.5-2.6,1.4-3.5
	C7.8,9.2,7.4,7.9,8.1,6.1c0,0,1.1-0.4,3.6,1.4C12.8,7.1,13.9,7,15,7c1.1,0,2.2,0.2,3.3,0.4c2.5-1.7,3.6-1.4,3.6-1.4
	c0.7,1.8,0.3,3.2,0.1,3.5c0.8,0.9,1.4,2.1,1.4,3.5c0,5.1-3.1,6.2-6,6.5c0.5,0.4,0.9,1.2,0.9,2.4c0,1.8,0,3.2,0,3.6
	c0,0.4,0.2,0.8,0.9,0.6c5.2-1.7,9-6.7,9-12.5C28.2,6.5,22.3,0.6,15,0.6z"/>
</svg>
