<?xml version="1.0" encoding="UTF-8" standalone="no"?>
<svg id="Layer_1" xmlns:sketch="http://www.bohemiancoding.com/sketch/ns" xmlns="http://www.w3.org/2000/svg" xml:space="preserve" viewBox="-553 378 172 45" height="45" width="172" version="1.1" y="0px" x="0px" xmlns:xlink="http://www.w3.org/1999/xlink" enable-background="new -553 378 172 45">
<path id="Fill-1" d="m-501.5 390.7h3.9l4.1 14.6h0.1l8.2-14.6h3.9l-2.7 19.3h-2.6l2.2-15.9h-0.1l-8.8 15.9h-1.8l-4.4-15.9h-0.1l-2.2 15.9h-2.7l3-19.3" fill="#2B5882" sketch:type="MSShapeGroup"/>
<path id="Fill-2" d="m-480.8 397h2.9l2.5 10.1h0.1l5.1-10.1h2.7l-8.4 15.7c-0.3 0.6-0.6 1.1-0.9 1.5-0.3 0.5-0.6 0.9-1 1.2s-0.8 0.6-1.3 0.8-1.1 0.3-1.8 0.3c-0.4 0-0.7 0-1.1-0.1-0.4 0-0.7-0.1-1-0.3l0.6-2.2c0.5 0.2 0.9 0.3 1.5 0.3 0.4 0 0.7-0.1 1-0.2s0.5-0.2 0.7-0.4 0.4-0.4 0.6-0.7 0.3-0.5 0.5-0.9l1.1-2-3.8-13" fill="#2B5882" sketch:type="MSShapeGroup"/>
<path id="Fill-3" d="m-450 402.5c0 1.1-0.2 2.2-0.5 3.2s-0.9 1.8-1.6 2.5-1.5 1.3-2.6 1.7c-1 0.4-2.2 0.6-3.6 0.6s-2.6-0.2-3.6-0.6-1.9-1-2.6-1.7-1.2-1.5-1.6-2.5-0.5-2-0.5-3.2v-11.9h4.3v11.7c0 0.6 0.1 1.2 0.3 1.7s0.5 1 0.8 1.3c0.4 0.4 0.8 0.7 1.3 0.9s1 0.3 1.6 0.3 1.1-0.1 1.6-0.3 0.9-0.5 1.2-0.9 0.6-0.8 0.8-1.3 0.3-1.1 0.3-1.7v-11.7h4.3v11.9" fill="#BF333A" sketch:type="MSShapeGroup"/>
<path id="Fill-4" d="m-437.4 395.4c-0.4-0.4-0.8-0.8-1.4-1s-1.2-0.3-1.7-0.3c-0.3 0-0.6 0-1 0.1-0.3 0.1-0.6 0.2-0.9 0.3-0.3 0.2-0.5 0.4-0.7 0.6-0.2 0.3-0.3 0.6-0.3 0.9 0 0.6 0.2 1 0.7 1.3 0.4 0.3 1 0.6 1.7 0.8s1.4 0.4 2.2 0.7c0.8 0.2 1.5 0.5 2.2 0.9s1.2 0.9 1.7 1.6c0.4 0.7 0.7 1.6 0.7 2.7s-0.2 2-0.6 2.8-1 1.5-1.6 2c-0.7 0.5-1.5 0.9-2.4 1.2s-1.9 0.4-2.9 0.4c-1.3 0-2.4-0.2-3.5-0.6s-2.1-1-3-1.9l3.1-3.3c0.4 0.6 1 1 1.7 1.3s1.4 0.5 2.1 0.5c0.4 0 0.7 0 1.1-0.1s0.7-0.2 1-0.4 0.5-0.4 0.7-0.6c0.2-0.3 0.3-0.6 0.3-0.9 0-0.6-0.2-1-0.7-1.4-0.5-0.3-1-0.6-1.7-0.9s-1.4-0.5-2.2-0.7c-0.8-0.2-1.5-0.6-2.2-1s-1.2-0.9-1.7-1.6-0.7-1.5-0.7-2.6c0-1 0.2-1.9 0.6-2.7s1-1.4 1.7-2c0.7-0.5 1.5-0.9 2.4-1.2s1.8-0.4 2.8-0.4c1.1 0 2.2 0.2 3.2 0.5s2 0.8 2.8 1.6l-3.5 3.4" fill="#BF333A" sketch:type="MSShapeGroup"/>
<path id="Fill-5" d="m-419.2 400.5c-0.4-0.5-0.8-0.8-1.3-1.1-0.5-0.2-1-0.4-1.7-0.4s-1.3 0.1-1.8 0.4c-0.5 0.2-1 0.6-1.4 1s-0.7 0.9-1 1.5c-0.2 0.6-0.4 1.1-0.5 1.7s-0.1 1.2 0.1 1.7c0.1 0.5 0.3 1 0.7 1.4 0.3 0.4 0.7 0.7 1.2 0.9s1 0.3 1.7 0.3c0.7 0 1.3-0.1 1.8-0.4 0.5-0.2 1-0.6 1.5-1.1l1.5 1.7c-0.8 0.7-1.6 1.2-2.5 1.5s-1.8 0.5-2.8 0.5-1.9-0.2-2.7-0.5-1.4-0.8-2-1.4c-0.5-0.6-0.9-1.3-1.1-2.1s-0.3-1.7-0.1-2.7c0.1-1 0.4-1.9 0.9-2.8 0.5-0.8 1-1.6 1.7-2.2s1.5-1.1 2.4-1.4 1.8-0.5 2.9-0.5c1 0 1.8 0.2 2.7 0.5 0.8 0.3 1.5 0.8 2.1 1.5l-2.3 2" fill="#2B5882" sketch:type="MSShapeGroup"/>
<path id="Fill-6" d="m-414.7 403.5c-0.1 0.7-0.1 1.3 0 1.8 0.1 0.6 0.3 1 0.6 1.4s0.7 0.7 1.2 0.9 1.1 0.3 1.8 0.3 1.3-0.1 1.8-0.3c0.6-0.2 1.1-0.5 1.5-0.9s0.8-0.9 1.1-1.4c0.3-0.6 0.5-1.2 0.6-1.8 0.1-0.7 0.1-1.3 0-1.8-0.1-0.6-0.3-1-0.7-1.4-0.3-0.4-0.7-0.7-1.2-0.9s-1.1-0.3-1.7-0.3c-0.7 0-1.3 0.1-1.8 0.3-0.6 0.2-1.1 0.5-1.5 0.9s-0.8 0.9-1.1 1.4-0.5 1.1-0.6 1.8m-2.7 0c0.1-0.9 0.4-1.8 0.9-2.6s1.1-1.5 1.8-2.2c0.7-0.6 1.5-1.1 2.4-1.5s1.8-0.5 2.8-0.5 1.9 0.2 2.6 0.5 1.5 0.8 2 1.5c0.5 0.6 0.9 1.3 1.2 2.2 0.2 0.8 0.3 1.7 0.2 2.6s-0.5 1.8-0.9 2.7c-0.5 0.8-1.1 1.5-1.8 2.2-0.7 0.6-1.5 1.1-2.4 1.4-0.9 0.4-1.8 0.5-2.8 0.5s-1.9-0.2-2.7-0.5c-0.8-0.4-1.5-0.8-2-1.4s-0.9-1.3-1.2-2.2c-0.2-0.9-0.2-1.8-0.1-2.7" fill="#2B5882" sketch:type="MSShapeGroup"/>
<path id="Fill-7" d="m-400.8 397h2.3l-0.3 2h0.1c0.1-0.2 0.3-0.4 0.5-0.7 0.3-0.3 0.6-0.5 1-0.8 0.4-0.2 0.9-0.5 1.4-0.6 0.5-0.2 1.1-0.3 1.6-0.3 1.9 0 3.1 0.8 3.7 2.4 0.5-0.8 1.2-1.4 2.1-1.8 0.8-0.4 1.6-0.6 2.4-0.6 1 0 1.8 0.2 2.4 0.5s1 0.8 1.3 1.3 0.5 1.1 0.5 1.8 0 1.4-0.1 2.1l-1 7.5h-2.5l1-7.2c0.1-0.5 0.1-1 0.1-1.4 0-0.5-0.1-0.9-0.2-1.2s-0.4-0.6-0.7-0.8-0.8-0.3-1.4-0.3c-1.2 0-2.1 0.4-2.7 1.1s-1 1.7-1.2 2.8l-1 7.1h-2.5l0.9-6.8c0.1-0.6 0.1-1.2 0.2-1.7 0-0.5-0.1-0.9-0.2-1.3s-0.4-0.7-0.7-0.9-0.8-0.3-1.4-0.3c-0.4 0-0.9 0.1-1.3 0.3s-0.8 0.4-1.2 0.8c-0.4 0.3-0.7 0.8-0.9 1.3-0.3 0.5-0.4 1.2-0.6 1.9l-0.9 6.7h-2.5l1.8-12.9" fill="#2B5882" sketch:type="MSShapeGroup"/>
<path id="Fill-8" d="m-521 404.8c1.5 3.9 2.8 7.9 3.9 12l-10.2 4.6c-2.4-3.5-4.6-7.1-6.7-10.8l13-5.8" fill="#BF333A" sketch:type="MSShapeGroup"/>
<path id="Fill-9" d="m-526.6 389.8c3.9-1.5 8-2.7 12.1-3.8l4.9 10.1c-3.5 2.4-7.2 4.6-10.9 6.6l-6.1-12.9" fill="#BF333A" sketch:type="MSShapeGroup"/>
<path id="Fill-10" d="m-535.5 378.5c2.4 3.5 4.6 6.9 6.6 10.6l-12.9 5.9c-1.5-3.9-2.7-7.7-3.9-11.8l10.2-4.7" fill="#BF333A" sketch:type="MSShapeGroup"/>
<path id="Fill-11" d="m-542.2 397l6 13c-3.9 1.5-8 2.8-12.1 4l-4.6-10.3c3.4-2.4 7-4.7 10.7-6.7" fill="#BF333A" sketch:type="MSShapeGroup"/>
<path id="Fill-12" d="m-547 385.5c0.8 3.4 1.8 6.8 3 10.1-3 1.7-5.9 3.6-8.8 5.8-0.7-5.9 1.5-11.9 5.8-15.9" fill="#2B5882" sketch:type="MSShapeGroup"/>
<path id="Fill-13" d="m-516.9 384.9c-3.5 0.8-6.9 1.7-10.2 2.9-1.7-3-3.6-5.9-5.7-8.7 5.9-0.7 11.9 1.5 15.9 5.8" fill="#2B5882" sketch:type="MSShapeGroup"/>
<path id="Fill-14" d="m-515.9 414.6c-0.8-3.4-1.8-6.8-3-10.1 3-1.7 5.9-3.6 8.8-5.8 0.6 6-1.5 11.9-5.8 15.9" fill="#2B5882" sketch:type="MSShapeGroup"/>
<path id="Fill-15" d="m-546 415.4c3.5-0.9 6.9-1.9 10.1-3.1 1.8 3 3.8 5.8 6 8.6-6 0.8-12-1.2-16.1-5.5" fill="#2B5882" sketch:type="MSShapeGroup"/>
<path id="Fill-16" d="m-430.3 408.3c0 1-0.8 1.8-1.8 1.8s-1.8-0.8-1.8-1.8 0.8-1.8 1.8-1.8c1 0 1.8 0.8 1.8 1.8" fill="#2B5882" sketch:type="MSShapeGroup"/>
<path id="Fill-17" d="m-466 419.2v1.2h-0.7v-0.7c-0.2 0.4-0.7 0.8-1.5 0.8-0.7 0-1.6-0.4-1.6-2v-2.6h0.8v2.5c0 0.9 0.3 1.4 1 1.4 0.6 0 0.9-0.4 1.1-0.7 0-0.1 0.1-0.3 0.1-0.4v-2.8h0.8v3.3" fill="#2B5882" sketch:type="MSShapeGroup"/>
<path id="Fill-18" d="m-464.6 417.2v-1.2h0.7v0.7c0.2-0.4 0.8-0.9 1.5-0.9 0.6 0 1.6 0.4 1.6 1.9v2.7h-0.8v-2.6c0-0.7-0.3-1.3-1.1-1.3-0.5 0-1 0.4-1.1 0.8 0 0.1-0.1 0.2-0.1 0.4v2.7h-0.8v-3.2" fill="#2B5882" sketch:type="MSShapeGroup"/>
<path id="Fill-19" d="m-458.5 418.6v0.3c0.2 0.6 0.6 1 1.2 1 0.9 0 1.4-0.7 1.4-1.7 0-0.9-0.5-1.7-1.4-1.7-0.6 0-1.1 0.4-1.3 1v0.3 0.8h0.1zm-0.9 1.9v-1.2-5.5h0.8v2.8c0.3-0.5 0.8-0.8 1.6-0.8 1.1 0 1.9 0.9 1.9 2.3 0 1.6-1 2.4-2.1 2.4-0.7 0-1.2-0.3-1.5-0.9v0.7h-0.7v0.2z" fill="#2B5882" sketch:type="MSShapeGroup"/>
<path id="Fill-20" d="m-453.5 418.2c0 1 0.6 1.7 1.4 1.7s1.4-0.7 1.4-1.8c0-0.8-0.4-1.7-1.4-1.7-0.9 0-1.4 0.9-1.4 1.8m3.7 0c0 1.7-1.2 2.4-2.3 2.4-1.2 0-2.2-0.9-2.2-2.3 0-1.5 1-2.4 2.3-2.4 1.3-0.1 2.2 0.9 2.2 2.3" fill="#2B5882" sketch:type="MSShapeGroup"/>
<path id="Fill-21" d="m-448.5 415.9l0.7 1c0.2 0.3 0.3 0.5 0.5 0.7 0.2-0.3 0.3-0.5 0.5-0.7l0.6-1h0.9l-1.6 2.2 1.6 2.3h-0.9l-0.7-1c-0.2-0.3-0.3-0.5-0.5-0.8-0.2 0.3-0.3 0.5-0.5 0.8l-0.7 1h-0.9l1.6-2.3-1.6-2.2h1" fill="#2B5882" sketch:type="MSShapeGroup"/>
<path id="Fill-22" d="m-441.5 414.6v1.3h1.2v0.6h-1.2v2.4c0 0.6 0.2 0.9 0.6 0.9 0.2 0 0.4 0 0.5-0.1v0.6c-0.2 0.1-0.4 0.1-0.7 0.1-0.4 0-0.7-0.1-0.9-0.3s-0.3-0.6-0.3-1.2v-2.5h-0.7v-0.6h0.7v-1.1l0.8-0.1" fill="#2B5882" sketch:type="MSShapeGroup"/>
<path id="Fill-23" d="m-439.4 413.8h0.8v2.8c0.1-0.2 0.3-0.4 0.6-0.6 0.2-0.1 0.5-0.2 0.9-0.2 0.6 0 1.6 0.4 1.6 1.9v2.7h-0.8v-2.6c0-0.7-0.3-1.3-1.1-1.3-0.5 0-1 0.4-1.1 0.8 0 0.1-0.1 0.2-0.1 0.4v2.7h-0.8v-6.6" fill="#2B5882" sketch:type="MSShapeGroup"/>
<path id="Fill-24" d="m-431.2 417.8c0-0.5-0.2-1.3-1.2-1.3-0.8 0-1.2 0.8-1.3 1.3h2.5zm-2.4 0.5c0 1.1 0.7 1.6 1.6 1.6 0.6 0 1-0.1 1.3-0.2l0.1 0.6c-0.3 0.1-0.8 0.3-1.5 0.3-1.4 0-2.3-0.9-2.3-2.3s0.8-2.4 2.1-2.4c1.5 0 1.9 1.3 1.9 2.1v0.4h-3.2v-0.1z" fill="#2B5882" sketch:type="MSShapeGroup"/>
<path id="Fill-25" d="m-426.5 418.6v0.3c0.2 0.6 0.7 1 1.3 1 0.9 0 1.4-0.7 1.4-1.7 0-0.9-0.5-1.7-1.4-1.7-0.6 0-1.1 0.4-1.3 1 0 0.1-0.1 0.2-0.1 0.3v0.8h0.1zm-0.9-1.2v-1.5h0.7v0.8c0.3-0.6 0.9-0.9 1.6-0.9 1.1 0 1.9 0.9 1.9 2.3 0 1.6-1 2.4-2.1 2.4-0.6 0-1.1-0.3-1.4-0.7v2.5h-0.8v-4.9h0.1z" fill="#2B5882" sketch:type="MSShapeGroup"/>
<path id="Fill-26" d="m-421.5 418.2c0 1 0.6 1.7 1.4 1.7s1.4-0.7 1.4-1.8c0-0.8-0.4-1.7-1.4-1.7s-1.4 0.9-1.4 1.8m3.7 0c0 1.7-1.2 2.4-2.3 2.4-1.2 0-2.2-0.9-2.2-2.3 0-1.5 1-2.4 2.3-2.4 1.3-0.1 2.2 0.9 2.2 2.3" fill="#2B5882" sketch:type="MSShapeGroup"/>
<path id="Fill-27" d="m-416.9 419.6c0.2 0.2 0.7 0.3 1.1 0.3 0.6 0 0.9-0.3 0.9-0.7s-0.2-0.6-0.9-0.8c-0.8-0.3-1.2-0.7-1.2-1.3 0-0.7 0.6-1.3 1.6-1.3 0.5 0 0.9 0.1 1.1 0.3l-0.2 0.6c-0.2-0.1-0.5-0.3-0.9-0.3-0.5 0-0.8 0.3-0.8 0.6 0 0.4 0.3 0.5 0.9 0.8 0.8 0.3 1.2 0.7 1.2 1.4 0 0.8-0.6 1.4-1.7 1.4-0.5 0-1-0.1-1.3-0.3l0.2-0.7" fill="#2B5882" sketch:type="MSShapeGroup"/>
<path id="Fill-28" d="m-413.1 419.6c0.2 0.2 0.7 0.3 1.1 0.3 0.6 0 0.9-0.3 0.9-0.7s-0.2-0.6-0.9-0.8c-0.8-0.3-1.2-0.7-1.2-1.3 0-0.7 0.6-1.3 1.6-1.3 0.5 0 0.9 0.1 1.1 0.3l-0.2 0.6c-0.2-0.1-0.5-0.3-0.9-0.3-0.5 0-0.8 0.3-0.8 0.6 0 0.4 0.3 0.5 0.9 0.8 0.8 0.3 1.2 0.7 1.2 1.4 0 0.8-0.6 1.4-1.7 1.4-0.5 0-1-0.1-1.3-0.3l0.2-0.7" fill="#2B5882" sketch:type="MSShapeGroup"/>
<path id="Fill-29" d="m-409.3 415.9h0.8v4.5h-0.8v-4.5zm1-1.2c0 0.3-0.2 0.5-0.5 0.5s-0.5-0.2-0.5-0.5 0.2-0.5 0.5-0.5c0.3-0.1 0.5 0.2 0.5 0.5z" fill="#2B5882" sketch:type="MSShapeGroup"/>
<path id="Fill-30" d="m-406.2 418.6v0.3c0.2 0.6 0.6 1 1.3 1 0.9 0 1.4-0.7 1.4-1.7 0-0.9-0.5-1.7-1.4-1.7-0.6 0-1.1 0.4-1.3 1v0.3 0.8zm-0.9 1.9v-1.2-5.5h0.8v2.8c0.3-0.5 0.8-0.8 1.6-0.8 1.1 0 1.9 0.9 1.9 2.3 0 1.6-1 2.4-2.1 2.4-0.7 0-1.2-0.3-1.5-0.9v0.7h-0.7v0.2z" fill="#2B5882" sketch:type="MSShapeGroup"/>
<path id="Fill-31" d="m-399.9 413.8h0.8v6.6h-0.8v-6.6z" fill="#2B5882" sketch:type="MSShapeGroup"/>
<path id="Fill-32" d="m-397.7 415.9h0.8v4.5h-0.8v-4.5zm0.9-1.2c0 0.3-0.2 0.5-0.5 0.5s-0.5-0.2-0.5-0.5 0.2-0.5 0.5-0.5c0.3-0.1 0.5 0.2 0.5 0.5z" fill="#2B5882" sketch:type="MSShapeGroup"/>
<path id="Fill-33" d="m-402 415.9h0.8v4.5h-0.8v-4.5zm0.9-1.2c0 0.3-0.2 0.5-0.5 0.5s-0.5-0.2-0.5-0.5 0.2-0.5 0.5-0.5c0.3-0.1 0.5 0.2 0.5 0.5z" fill="#2B5882" sketch:type="MSShapeGroup"/>
<path id="Fill-34" d="m-394.5 414.6v1.3h1.2v0.6h-1.2v2.4c0 0.6 0.2 0.9 0.6 0.9 0.2 0 0.4 0 0.5-0.1v0.6c-0.2 0.1-0.4 0.1-0.7 0.1-0.4 0-0.7-0.1-0.9-0.3s-0.3-0.6-0.3-1.2v-2.5h-0.7v-0.6h0.7v-1.1l0.8-0.1" fill="#2B5882" sketch:type="MSShapeGroup"/>
<path id="Fill-35" d="m-392.3 415.9h0.8v4.5h-0.8v-4.5zm0.9-1.2c0 0.3-0.2 0.5-0.5 0.5s-0.5-0.2-0.5-0.5 0.2-0.5 0.5-0.5c0.3-0.1 0.5 0.2 0.5 0.5z" fill="#2B5882" sketch:type="MSShapeGroup"/>
<path id="Fill-36" d="m-387.2 417.8c0-0.5-0.2-1.3-1.2-1.3-0.8 0-1.2 0.8-1.3 1.3h2.5zm-2.5 0.5c0 1.1 0.7 1.6 1.6 1.6 0.6 0 1-0.1 1.3-0.2l0.1 0.6c-0.3 0.1-0.8 0.3-1.5 0.3-1.4 0-2.3-0.9-2.3-2.3s0.8-2.4 2.1-2.4c1.5 0 1.9 1.3 1.9 2.1v0.4h-3.2v-0.1z" fill="#2B5882" sketch:type="MSShapeGroup"/>
<path id="Fill-37" d="m-385.5 419.6c0.2 0.2 0.7 0.3 1.1 0.3 0.6 0 0.9-0.3 0.9-0.7s-0.2-0.6-0.9-0.8c-0.8-0.3-1.2-0.7-1.2-1.3 0-0.7 0.6-1.3 1.6-1.3 0.5 0 0.9 0.1 1.1 0.3l-0.2 0.6c-0.2-0.1-0.5-0.3-0.9-0.3-0.5 0-0.8 0.3-0.8 0.6 0 0.4 0.3 0.5 0.9 0.8 0.8 0.3 1.2 0.7 1.2 1.4 0 0.8-0.6 1.4-1.7 1.4-0.5 0-1-0.1-1.3-0.3l0.2-0.7" fill="#2B5882" sketch:type="MSShapeGroup"/>
</svg>
