<svg width="36" height="36" version="1.1" id="Layer_1" xmlns="http://www.w3.org/2000/svg" xmlns:xlink="http://www.w3.org/1999/xlink" x="0px" y="0px"
	 viewBox="0 0 36 36" style="enable-background:new 0 0 36 36;" xml:space="preserve">
<style type="text/css">
	.st0{fill:#CE2D28;}
	.st1{fill:#FFFFFF;}
</style>
<g>
	<rect class="st0" width="36" height="36"/>
	<path class="st1" d="M24.8,11.4c-1,0-1.9,0.2-2.7,0.6V6h-3.4v11.5c0,3.4,2.7,6.1,6.1,6.1c3.4,0,6.1-2.7,6.1-6.1
		C30.9,14.1,28.2,11.4,24.8,11.4 M24.8,20.2c-1.5,0-2.7-1.2-2.7-2.7c0-1.5,1.2-2.7,2.7-2.7c1.5,0,2.7,1.2,2.7,2.7
		C27.5,19,26.3,20.2,24.8,20.2"/>
	<path class="st1" d="M17.2,20.5c0-0.1,0-0.2-0.1-0.2c-0.2-0.6-0.3-1.3-0.3-2v-7.7h-3.4v5.8C12.8,16.2,12,16,11.3,16
		c-3.4,0-6.1,2.7-6.1,6.1c0,3.4,2.7,6.1,6.1,6.1c2.1,0,3.9-1,5-2.6c1,1.1,2.3,2,3.7,2.6l1.7-2.9v0C19.6,24.5,17.8,22.7,17.2,20.5
		 M11.3,24.8c-1.5,0-2.7-1.2-2.7-2.7c0-1.5,1.2-2.7,2.7-2.7c1.5,0,2.7,1.2,2.7,2.7C14,23.6,12.8,24.8,11.3,24.8"/>
</g>
</svg>
