<?xml version="1.0" encoding="utf-8"?>
<svg width="160" height="33" version="1.1" id="Layer_1" xmlns="http://www.w3.org/2000/svg" xmlns:xlink="http://www.w3.org/1999/xlink" x="0px" y="0px" viewBox="0 0 1319 231" enable-background="new 0 0 1319 231" xml:space="preserve">
<g id="BG" display="none">
	<rect x="118" y="-588.2" display="inline" fill="#F76CB5" width="109.3" height="474.5"/>
	<rect x="227.3" y="-588.2" display="inline" fill="#FFB2E0" width="108.2" height="474.5"/>
	<rect x="335.5" y="-588.2" display="inline" fill="#CC2A2B" width="109.3" height="474.5"/>
	<rect x="444.7" y="-588.2" display="inline" fill="#F84C4A" width="109.3" height="474.5"/>
	<rect x="554" y="-588.2" display="inline" fill="#FE6E6F" width="110.4" height="474.5"/>
	<rect x="664.4" y="-588.2" display="inline" fill="#0077A8" width="109.3" height="474.5"/>
	<rect x="773.7" y="-588.2" display="inline" fill="#0A8AC4" width="109.3" height="474.5"/>
	<rect x="883" y="-588.2" display="inline" fill="#00B2DB" width="109.3" height="474.5"/>
	<rect x="992.2" y="-588.2" display="inline" fill="#479945" width="109.3" height="474.5"/>
	<rect x="1101.5" y="-588.2" display="inline" fill="#5DB65F" width="108.2" height="474.5"/>
	<rect x="1209.7" y="-588.2" display="inline" fill="#98D78A" width="109.3" height="474.5"/>
	<rect x="1319" y="-588.2" display="inline" fill="#FFC600" width="109.3" height="474.5"/>
	<rect x="1428.3" y="-588.2" display="inline" fill="#FFE54F" width="110.4" height="474.5"/>
	<rect x="-209.6" y="-588.2" display="inline" fill="#00A19B" width="109.3" height="474.5"/>
	<rect x="-100.3" y="-588.2" display="inline" fill="#59D9D4" width="109.3" height="474.5"/>
	<rect x="8.7" y="-588.2" display="inline" fill="#CE4785" width="109.3" height="474.5"/>
</g>
<g id="Logo_white">
	<path fill="#FFFFFF" d="M436.5-281.3c-4.8,0-9.1,2.4-9.1,7c0,5.4,6.6,6.9,12,8.8c9.9,3.4,21.8,8,21.8,22.7
		c0,15.2-14.3,21.7-26.5,21.7c-10.8,0-19.2-4.1-26.8-11.7l9.5-9.3c5.7,5.5,10.1,8.8,17.4,8.8c5.6,0,11.1-2.7,11.1-8.9
		c0-6-6.4-8.3-13.5-10.9c-9.1-3.4-19.3-7.4-19.3-20.8c0-13.3,11.3-19.6,22.9-19.6c9,0,16.1,2.9,23.2,8.3l-8.2,10.2
		C447.2-278.3,441.9-281.3,436.5-281.3z"/>
	<path fill="#FFFFFF" d="M486.8-263.1v20.4c0,1.6,0,3,0.2,4.5c0.4,3.1,1.6,5,4.6,5c2.2,0,3.9-0.6,5.7-1.5l4.4,10.5
		c-3.4,2-8.4,3.1-12.5,3.1c-8.2,0-13.7-4.5-15.6-11.3c-0.8-2.6-1-5.7-1-8.8v-21.9h-6.3v-11.8h6.3l2.2-11.6h12v11.6h13.4v11.8H486.8z
		"/>
	<path fill="#FFFFFF" d="M520.2-274.9l10.6,31.3h0.2l10.8-31.3h15.4l-29.6,76.7l-12.7-4.9l8.4-22.3l-18.6-49.5H520.2z"/>
	<path fill="#FFFFFF" d="M578.6-222.3h-14.2v-75h14.2V-222.3z"/>
	<path fill="#FFFFFF" d="M603.2-245.1c1,7.2,5.7,12.6,13.2,12.6c6.8,0,10.3-2.8,13.7-7.8l9.3,6.3c-6,8.7-12.7,12.9-24,12.9
		c-15.9,0-26.6-11.1-26.6-26.9c0-15.9,11.6-28.1,26.7-28.1c14.6,0,25.4,10.3,25.4,24.3c0,2.1-0.3,4.6-0.7,6.7H603.2z M626.4-254.8
		c-0.3-6.3-4.7-10.2-10.5-10.2c-6.8,0-10.5,4.3-12,10.2H626.4z"/>
	<path fill="#FFFFFF" d="M701.8-225.1c0,5.7-1.1,10.3-3.3,14c-4.6,8-13.6,11.5-23.2,11.5c-8.1,0-16.9-2.3-24.3-7.2l5.2-11.7
		c6,4.5,13.4,6.7,18.6,6.7c7.4,0,12.8-4,12.8-12.4v-4.8c-3.9,5-10.4,6.7-15.5,6.7c-13.9,0-24.5-11.9-24.5-27.1
		c0-14.7,10.4-26.7,24.7-26.7c5.3,0,12.2,1.9,16,7.4l1.2-6.2h12.3V-225.1z M687.6-258.2c-3.6-4.2-7.8-5.7-12.2-5.7
		c-9.1,0-13.3,7.6-13.3,14.9c0,7.7,5,14.5,13.1,14.5c4.4,0,9.3-1.7,12.4-6.9V-258.2z"/>
	<path fill="#FFFFFF" d="M750.9-222.3l-1.1-7.2c-4.2,5.9-10.5,8.4-16.3,8.4c-5.7,0-10.7-2.7-14-6.9c-4.1-5.3-4.7-12.1-4.7-19.6
		v-27.3H729v26.6c0,3.9,0.1,8.3,1.6,11.3c1.3,2.6,3.9,3.7,7,3.7c4.2,0,8.8-2.4,11.4-6.7v-34.9h14.2v52.6H750.9z"/>
	<path fill="#FFFFFF" d="M777-282.2v-12.1h14.2v12.1H777z M777-222.3v-52.6h14.2v52.6H777z"/>
	<path fill="#FFFFFF" d="M843.3-222.3l-1.2-6.5c-3.7,5.8-10.8,7.7-16.2,7.7c-13.9,0-24.5-12.4-24.5-27.7c0-14.8,10.4-27.3,24.7-27.3
		c5,0,11.3,1.8,15.3,6.3v-27.5h14.2v75H843.3z M841.4-258.2c-3.6-4.2-7.8-5.7-12.2-5.7c-9.1,0-13.3,8.1-13.3,15.5
		c0,7.7,5,15.1,13.1,15.1c4.5,0,9.3-1.7,12.4-6.9V-258.2z"/>
	<path fill="#FFFFFF" d="M880.2-245.1c1,7.2,5.7,12.6,13.2,12.6c6.8,0,10.3-2.8,13.7-7.8l9.3,6.3c-6,8.7-12.7,12.9-24,12.9
		c-15.9,0-26.6-11.1-26.6-26.9c0-15.9,11.6-28.1,26.7-28.1c14.6,0,25.4,10.3,25.4,24.3c0,2.1-0.3,4.6-0.7,6.7H880.2z M903.4-254.8
		c-0.3-6.3-4.7-10.2-10.5-10.2c-6.8,0-10.5,4.3-12,10.2H903.4z"/>
</g>
<g id="Logo_symbol">
	<g>
		<path fill="none" stroke="#FFFFFF" stroke-width="2" stroke-miterlimit="10" d="M727.8-334.4c0,5.5-4.5,10-10,10h-110
			c-5.5,0-10-4.5-10-10v-110c0-5.5,4.5-10,10-10h110c5.5,0,10,4.5,10,10V-334.4z"/>
	</g>
	<g>
		<path fill="#FFFFFF" d="M672.4-372.4c7.3-1.9,14.9-5.9,20.2-11.2l-39.9-22.1c-7.4,2.3-14.5,6.1-19.8,11.5L672.4-372.4z"/>
		<path fill="#FFFFFF" d="M676.9-369.9c-4.5,1.4-9.2,2.2-14.1,2.2c-13.1,0-24.9-5.3-33.5-13.9v22.5c9.8,5.9,21.2,9.3,33.5,9.3
			s23.7-3.4,33.5-9.3v-22.5C690.9-376.3,684.3-372.2,676.9-369.9z"/>
		<path fill="#FFFFFF" d="M662.8-428c-12.2,0-23.7,3.4-33.5,9.3v22.5c5.3-5.3,11.9-9.4,19.3-11.7c4.5-1.4,9.2-2.2,14.1-2.2
			c13.1,0,24.9,5.3,33.5,13.9v-22.5C686.5-424.6,675-428,662.8-428z"/>
	</g>
</g>
<g id="Logo_Full">
	<g>
		<polygon fill="#1072BA" points="0,26.7 191.6,133 191.6,197.3 0,91 		"/>
		<path fill="#32BCEE" d="M95.8,172.8c-37.4,0-71.3-15.2-95.8-39.8v64.3c28,16.8,60.8,26.6,95.8,26.6s67.8-9.7,95.8-26.6V133
			C167.1,157.5,133.2,172.8,95.8,172.8z"/>
		<path fill="#32BCEE" d="M95.8,51.2c37.4,0,71.3,15.2,95.8,39.8V26.7c-28-16.8-60.8-26.6-95.8-26.6S28,9.8,0,26.7V91
			C24.5,66.4,58.4,51.2,95.8,51.2z"/>
	</g>
	<g>
		<path fill="#414142" d="M324.8,62.2c-9.9,0-18.8,5-18.8,14.5c0,11.1,13.6,14.2,24.8,18.2c20.4,7,45,16.5,45,46.9
			c0,31.4-29.5,44.8-54.7,44.8c-22.3,0-39.6-8.5-55.3-24.2l19.6-19.2c11.8,11.4,20.8,18.2,35.9,18.2c11.6,0,22.9-5.6,22.9-18.4
			c0-12.4-13.2-17.1-27.9-22.5c-18.8-7-39.8-15.3-39.8-42.9c0-27.5,23.3-40.5,47.3-40.5c18.6,0,33.2,6,47.9,17.1l-16.9,21.1
			C346.7,68.4,335.9,62.2,324.8,62.2z"/>
		<path fill="#414142" d="M428.6,99.8v42.1c0,3.3,0,6.2,0.4,9.3c0.8,6.4,3.3,10.3,9.5,10.3c4.5,0,8.1-1.2,11.8-3.1l9.1,21.7
			c-7,4.1-17.3,6.4-25.8,6.4c-16.9,0-28.3-9.3-32.2-23.3c-1.7-5.4-2.1-11.8-2.1-18.2V99.8h-13V75.5h13l4.5-23.9h24.8v23.9h27.7v24.4
			H428.6z"/>
		<path fill="#414142" d="M497.6,75.5l21.9,64.6h0.4l22.3-64.6H574l-61.1,158.3l-26.2-10.1l17.3-46L465.6,75.5H497.6z"/>
		<path fill="#414142" d="M618.1,184h-29.3V29.2h29.3V184z"/>
		<path fill="#414142" d="M668.9,137c2.1,14.9,11.8,26,27.3,26c14,0,21.3-5.8,28.3-16.1l19.2,13c-12.4,18-26.2,26.6-49.5,26.6
			c-32.8,0-54.9-22.9-54.9-55.5c0-32.8,23.9-58,55.1-58c30.1,0,52.4,21.3,52.4,50.2c0,4.3-0.6,9.5-1.4,13.8H668.9z M716.8,116.9
			c-0.6-13-9.7-21.1-21.7-21.1c-14,0-21.7,8.9-24.8,21.1H716.8z"/>
		<path fill="#414142" d="M872.5,178.3c0,11.8-2.3,21.3-6.8,28.9c-9.5,16.5-28.1,23.7-47.9,23.7c-16.7,0-34.9-4.7-50.2-14.9
			l10.7-24.2c12.4,9.3,27.7,13.8,38.4,13.8c15.3,0,26.4-8.3,26.4-25.6v-9.9c-8.1,10.3-21.5,13.8-32,13.8
			c-28.7,0-50.6-24.6-50.6-55.9c0-30.3,21.5-55.1,51-55.1c10.9,0,25.2,3.9,33,15.3l2.5-12.8h25.4V178.3z M843.1,109.9
			c-7.4-8.7-16.1-11.8-25.2-11.8c-18.8,0-27.5,15.7-27.5,30.8c0,15.9,10.3,29.9,27,29.9c9.1,0,19.2-3.5,25.6-14.2V109.9z"/>
		<path fill="#414142" d="M973.8,184l-2.3-14.9c-8.7,12.2-21.7,17.3-33.6,17.3c-11.8,0-22.1-5.6-28.9-14.2
			c-8.5-10.9-9.7-25-9.7-40.5V75.5h29.3v54.9c0,8.1,0.2,17.1,3.3,23.3c2.7,5.4,8.1,7.6,14.5,7.6c8.7,0,18.2-5,23.5-13.8v-72h29.3
			V184H973.8z"/>
		<path fill="#414142" d="M1027.7,60.4v-25h29.3v25H1027.7z M1027.7,184V75.5h29.3V184H1027.7z"/>
		<path fill="#414142" d="M1164.6,184l-2.5-13.4c-7.6,12-22.3,15.9-33.4,15.9c-28.7,0-50.6-25.6-50.6-57.2c0-30.6,21.5-56.4,51-56.4
			c10.3,0,23.3,3.7,31.6,13V29.2h29.3V184H1164.6z M1160.6,109.9c-7.4-8.7-16.1-11.8-25.2-11.8c-18.8,0-27.5,16.7-27.5,32
			c0,15.9,10.3,31.2,27,31.2c9.3,0,19.2-3.5,25.6-14.2V109.9z"/>
		<path fill="#414142" d="M1240.7,137c2.1,14.9,11.8,26,27.3,26c14,0,21.3-5.8,28.3-16.1l19.2,13c-12.4,18-26.2,26.6-49.5,26.6
			c-32.8,0-54.9-22.9-54.9-55.5c0-32.8,23.9-58,55.1-58c30.1,0,52.4,21.3,52.4,50.2c0,4.3-0.6,9.5-1.4,13.8H1240.7z M1288.6,116.9
			c-0.6-13-9.7-21.1-21.7-21.1c-14,0-21.7,8.9-24.8,21.1H1288.6z"/>
	</g>
</g>
<g>
</g>
<g>
</g>
<g>
</g>
<g>
</g>
<g>
</g>
<g>
</g>
</svg>
