<?xml version="1.0" encoding="utf-8"?>
<svg width="510" height="255" version="1.1" id="Layer_1" xmlns="http://www.w3.org/2000/svg" xmlns:xlink="http://www.w3.org/1999/xlink" x="0px" y="0px"
	 viewBox="0 0 510 255" enable-background="new 0 0 510 255" xml:space="preserve">
<g id="Logo_white">
	<path fill="#FFFFFF" d="M33.8,174.4c-4.7,0-8.9,2.3-8.9,6.8c0,5.3,6.4,6.7,11.7,8.6c9.7,3.3,21.3,7.8,21.3,22.2
		c0,14.9-14,21.2-25.9,21.2c-10.6,0-18.8-4-26.2-11.4l9.3-9.1c5.6,5.4,9.9,8.6,17,8.6c5.5,0,10.8-2.6,10.8-8.7
		c0-5.9-6.3-8.1-13.2-10.6c-8.9-3.3-18.9-7.2-18.9-20.3c0-13,11-19.1,22.4-19.1c8.8,0,15.7,2.8,22.7,8.1l-8,10
		C44.2,177.3,39.1,174.4,33.8,174.4z"/>
	<path fill="#FFFFFF" d="M82.9,192.2v19.9c0,1.6,0,2.9,0.2,4.4c0.4,3,1.6,4.9,4.5,4.9c2.1,0,3.8-0.6,5.6-1.5l4.3,10.3
		c-3.3,2-8.2,3-12.2,3c-8,0-13.4-4.4-15.2-11c-0.8-2.5-1-5.6-1-8.6v-21.4h-6.2v-11.5h6.2l2.1-11.3h11.7v11.3H96v11.5H82.9z"/>
	<path fill="#FFFFFF" d="M115.6,180.6l10.4,30.6h0.2l10.6-30.6h15l-28.9,74.9l-12.4-4.8l8.2-21.8l-18.2-48.4L115.6,180.6
		L115.6,180.6z"/>
	<path fill="#FFFFFF" d="M172.6,232h-13.9v-73.3h13.9V232z"/>
	<path fill="#FFFFFF" d="M196.7,209.8c1,7,5.6,12.3,12.9,12.3c6.6,0,10.1-2.7,13.4-7.6l9.1,6.2c-5.9,8.5-12.4,12.6-23.4,12.6
		c-15.5,0-26-10.8-26-26.3c0-15.5,11.3-27.5,26.1-27.5c14.3,0,24.8,10.1,24.8,23.7c0,2.1-0.3,4.5-0.7,6.5H196.7z M219.3,200.3
		c-0.3-6.2-4.6-10-10.3-10c-6.6,0-10.3,4.2-11.7,10H219.3z"/>
	<path fill="#FFFFFF" d="M293,229.3c0,5.6-1.1,10.1-3.2,13.7c-4.5,7.8-13.3,11.2-22.7,11.2c-7.9,0-16.5-2.2-23.7-7l5.1-11.4
		c5.9,4.4,13.1,6.5,18.2,6.5c7.2,0,12.5-3.9,12.5-12.1v-4.7c-3.8,4.9-10.2,6.5-15.1,6.5c-13.6,0-23.9-11.6-23.9-26.5
		c0-14.4,10.2-26.1,24.1-26.1c5.2,0,11.9,1.9,15.6,7.2l1.2-6.1h12V229.3z M279.1,197c-3.5-4.1-7.6-5.6-11.9-5.6
		c-8.9,0-13,7.4-13,14.6c0,7.5,4.9,14.2,12.8,14.2c4.3,0,9.1-1.7,12.1-6.7L279.1,197L279.1,197z"/>
	<path fill="#FFFFFF" d="M341,232l-1.1-7c-4.1,5.8-10.3,8.2-15.9,8.2c-5.6,0-10.5-2.6-13.7-6.7c-4-5.2-4.6-11.8-4.6-19.1v-26.7h13.9
		v26c0,3.8,0.1,8.1,1.6,11c1.3,2.5,3.8,3.6,6.8,3.6c4.1,0,8.6-2.3,11.1-6.5v-34.1H353V232H341z"/>
	<path fill="#FFFFFF" d="M366.5,173.5v-11.8h13.9v11.8H366.5z M366.5,232v-51.4h13.9V232H366.5z"/>
	<path fill="#FFFFFF" d="M431.3,232l-1.2-6.4c-3.6,5.7-10.6,7.5-15.8,7.5c-13.6,0-23.9-12.1-23.9-27.1c0-14.5,10.2-26.7,24.1-26.7
		c4.9,0,11,1.8,14.9,6.2v-26.9h13.9V232H431.3z M429.4,197c-3.5-4.1-7.6-5.6-11.9-5.6c-8.9,0-13,7.9-13,15.1
		c0,7.5,4.9,14.8,12.8,14.8c4.4,0,9.1-1.7,12.1-6.7V197z"/>
	<path fill="#FFFFFF" d="M467.3,209.8c1,7,5.6,12.3,12.9,12.3c6.6,0,10.1-2.7,13.4-7.6l9.1,6.2c-5.9,8.5-12.4,12.6-23.4,12.6
		c-15.5,0-26-10.8-26-26.3c0-15.5,11.3-27.5,26.1-27.5c14.3,0,24.8,10.1,24.8,23.7c0,2.1-0.3,4.5-0.7,6.5H467.3z M490,200.3
		c-0.3-6.2-4.6-10-10.3-10c-6.6,0-10.3,4.2-11.7,10H490z"/>
</g>
<g id="Logo_symbol">
	<g>
		<path fill="none" stroke="#FFFFFF" stroke-width="2" stroke-miterlimit="10" d="M318.3,122.5c0,5.4-4.4,9.8-9.8,9.8H201.1
			c-5.4,0-9.8-4.4-9.8-9.8V15c0-5.4,4.4-9.8,9.8-9.8h107.5c5.4,0,9.8,4.4,9.8,9.8V122.5z"/>
	</g>
	<g>
		<path fill="#FFFFFF" d="M264.3,85.4c7.1-1.9,14.6-5.8,19.7-10.9l-39-21.6c-7.2,2.2-14.2,6-19.3,11.2L264.3,85.4z"/>
		<path fill="#FFFFFF" d="M268.7,87.7c-4.4,1.4-9,2.1-13.8,2.1c-12.8,0-24.3-5.2-32.7-13.6v22c9.6,5.8,20.7,9.1,32.7,9.1
			c12,0,23.2-3.3,32.7-9.1v-22C282.4,81.6,275.9,85.5,268.7,87.7z"/>
		<path fill="#FFFFFF" d="M254.8,31c-11.9,0-23.2,3.3-32.7,9.1v22c5.2-5.2,11.6-9.2,18.9-11.4c4.4-1.4,9-2.1,13.8-2.1
			c12.8,0,24.3,5.2,32.7,13.6v-22C278,34.3,266.8,31,254.8,31z"/>
	</g>
</g>
</svg>
