<?xml version="1.0" encoding="utf-8"?>
<!-- Generator: Adobe Illustrator 19.2.0, SVG Export Plug-In . SVG Version: 6.00 Build 0)  -->
<svg version="1.1" id="Layer_1" xmlns="http://www.w3.org/2000/svg" xmlns:xlink="http://www.w3.org/1999/xlink" x="0px" y="0px"
	 viewBox="0 0 30 30" style="enable-background:new 0 0 30 30;" xml:space="preserve">
<style type="text/css">
	.st0{fill:none;stroke:#999999;stroke-linecap:round;stroke-linejoin:round;stroke-miterlimit:10;}
</style>
<g>
	<path class="st0" d="M28.5,25.8c0,0.7-0.5,1.2-1.2,1.2H2.7c-0.6,0-1.2-0.5-1.2-1.2V9.1c0-0.7,0.5-1.2,1.2-1.2h24.7
		c0.6,0,1.2,0.5,1.2,1.2V25.8L28.5,25.8z M10.9,7.9V3.7c0-0.3,0.3-0.6,0.6-0.6h7c0.3,0,0.6,0.3,0.6,0.6v4.2 M10.9,5.5h8.2"/>
	<path class="st0" d="M5,12.7h20 M5,17.4h20 M5,22.2h20"/>
</g>
</svg>
