<?xml version="1.0" encoding="utf-8"?>
<!-- Generator: Avocode 2.4.5 - http://avocode.com -->
<svg height="20" width="4" xmlns:xlink="http://www.w3.org/1999/xlink" xmlns="http://www.w3.org/2000/svg" viewBox="0 0 4 20">
    <path fill="#d8d8d8" fill-rule="evenodd" d="M 2 4 C 3.1 4 4 3.1 4 2 C 4 0.9 3.1 0 2 0 C 0.9 0 0 0.9 0 2 C 0 3.1 0.9 4 2 4 Z M 2 12 C 3.1 12 4 11.1 4 10 C 4 8.9 3.1 8 2 8 C 0.9 8 0 8.9 0 10 C 0 11.1 0.9 12 2 12 Z M 2 20 C 3.1 20 4 19.1 4 18 C 4 16.9 3.1 16 2 16 C 0.9 16 0 16.9 0 18 C 0 19.1 0.9 20 2 20 Z M 2 20" />
</svg>