<?xml version="1.0" encoding="utf-8"?>
<svg width="10" height="16" version="1.1" id="Layer_1" xmlns="http://www.w3.org/2000/svg" xmlns:xlink="http://www.w3.org/1999/xlink" x="0px" y="0px"
	 viewBox="0 0 10 16" style="enable-background:new 0 0 10 16;" xml:space="preserve">
<style type="text/css">
	.st0{fill:#989898;}
</style>
<rect x="6.5" y="6.5" transform="matrix(-1 -1.224647e-016 1.224647e-016 -1 16.0516 15.9503)" class="st0" width="3" height="3"/>
<rect x="6.5" y="12.5" transform="matrix(-1 -1.224647e-016 1.224647e-016 -1 16.0516 27.9503)" class="st0" width="3" height="3"/>
<rect x="0.5" y="6.5" transform="matrix(-1 -1.224647e-016 1.224647e-016 -1 4.0516 15.9503)" class="st0" width="3" height="3"/>
<rect x="6.5" y="0.5" transform="matrix(-1 -1.224647e-016 1.224647e-016 -1 16.0516 3.9503)" class="st0" width="3" height="3"/>
<rect x="0.5" y="0.5" transform="matrix(-1 -1.224647e-016 1.224647e-016 -1 4.0516 3.9503)" class="st0" width="3" height="3"/>
<rect x="0.5" y="12.5" transform="matrix(-1 -1.224647e-016 1.224647e-016 -1 4.0516 27.9503)" class="st0" width="3" height="3"/>
</svg>
