<?xml version="1.0" encoding="utf-8"?>
<!-- Generator: Avocode 2.4.5 - http://avocode.com -->
<svg height="21" width="28" xmlns:xlink="http://www.w3.org/1999/xlink" xmlns="http://www.w3.org/2000/svg" viewBox="0 0 28 21">
    <path fill="#292929" opacity="0.4" fill-rule="evenodd" d="M 5.6 1.5 C 3.4 1.5 1.6 3.3 1.6 5.5 L 1.6 11.9 C 1.6 14.1 3.4 15.9 5.6 15.9 L 21 15.9 C 21.2 15.9 21.3 15.9 21.5 16.1 L 24.4 18.7 C 24.9 19.2 25.7 18.9 25.7 18.1 L 25.7 5.6 C 25.7 3.4 23.9 1.6 21.7 1.6 C 21.6 1.5 5.6 1.5 5.6 1.5 M 24.8 20.4 C 24.2 20.4 23.7 20.2 23.2 19.8 L 20.6 17.6 L 5.6 17.6 C 2.6 17.6 0 15 0 12 L 0 5.6 C 0 2.6 2.6 0 5.6 0 L 21.6 0 C 24.6 0 27.2 2.6 27.2 5.6 L 27.2 18.1 C 27.2 19.3 26.1 20.4 24.8 20.4" />
    <path fill="#292929" opacity="0.4" fill-rule="evenodd" d="M 7.1 10.27 C 6.8 10.27 6.5 10.07 6.3 9.98 C 6.1 9.77 6 9.48 6 9.18 C 6 8.88 6.2 8.57 6.3 8.38 C 6.8 7.88 7.6 7.88 8.1 8.38 C 8.3 8.57 8.4 8.88 8.4 9.18 C 8.4 9.48 8.2 9.77 8.1 9.98 C 7.8 10.07 7.5 10.27 7.1 10.27" />
    <path fill="#292929" opacity="0.4" fill-rule="evenodd" d="M 13.1 10.27 C 12.8 10.27 12.5 10.07 12.3 9.98 C 12.1 9.77 12 9.48 12 9.18 C 12 8.88 12.2 8.57 12.3 8.38 C 12.8 7.88 13.6 7.88 14.1 8.38 C 14.3 8.57 14.4 8.88 14.4 9.18 C 14.4 9.48 14.2 9.77 14.1 9.98 C 13.8 10.07 13.5 10.27 13.1 10.27" />
    <path fill="#292929" opacity="0.4" fill-rule="evenodd" d="M 20.1 10.27 C 19.8 10.27 19.5 10.07 19.3 9.98 C 19.1 9.77 19 9.48 19 9.18 C 19 8.88 19.2 8.57 19.3 8.38 C 19.8 7.88 20.6 7.88 21.1 8.38 C 21.3 8.57 21.4 8.88 21.4 9.18 C 21.4 9.48 21.2 9.77 21.1 9.98 C 20.8 10.07 20.5 10.27 20.1 10.27" />
</svg>