<?xml version="1.0" encoding="utf-8"?>
<!-- Generator: Avocode 2.4.5 - http://avocode.com -->
<svg height="22" width="22" xmlns:xlink="http://www.w3.org/1999/xlink" xmlns="http://www.w3.org/2000/svg" viewBox="0 0 22 22">
    <path fill="#292929" opacity="0.4" fill-rule="evenodd" d="M 16 0 L 16 2 L 20 2 L 20 6 L 22 6 L 22 0 L 16 0 Z M 12 2 L 14 2 L 14 0 L 12 0 L 12 2 Z M 8 2 L 10 2 L 10 0 L 8 0 L 8 2 Z M 0 0 L 0 6 L 2 6 L 2 2 L 6 2 L 6 0 L 0 0 Z M 20 10 L 22 10 L 22 8 L 20 8 L 20 10 Z M 0 10 L 2 10 L 2 8 L 0 8 L 0 10 Z M 20 14 L 22 14 L 22 12 L 20 12 L 20 14 Z M 0 14 L 2 14 L 2 12 L 0 12 L 0 14 Z M 20 16 L 20 20 L 16 20 L 16 22 L 22 22 L 22 16 L 20 16 Z M 0 16 L 0 22 L 6 22 L 6 20 L 2 20 L 2 16 L 0 16 Z M 12 22 L 14 22 L 14 20 L 12 20 L 12 22 Z M 8 22 L 10 22 L 10 20 L 8 20 L 8 22 Z M 8 22" />
</svg>