<?xml version="1.0" encoding="utf-8"?>
<!-- Generator: Avocode 2.4.5 - http://avocode.com -->
<svg height="24" width="24" xmlns:xlink="http://www.w3.org/1999/xlink" xmlns="http://www.w3.org/2000/svg" viewBox="0 0 24 24">
    <path fill="#292929" opacity="0.4" fill-rule="evenodd" d="M 11.63 15.32 C 11.42 15.32 11.13 15.32 11.03 15.13 L 6.22 10.32 C 5.92 10.02 5.92 9.52 6.22 9.23 C 6.53 8.93 7.03 8.93 7.33 9.23 L 11.53 13.43 L 15.72 9.23 C 16.03 8.93 16.53 8.93 16.83 9.23 C 17.13 9.52 17.13 10.02 16.83 10.32 L 12.03 15.13 C 12.13 15.32 11.83 15.32 11.63 15.32" />
    <path fill="#292929" opacity="0.4" fill-rule="evenodd" d="M 11.8 14.4 C 11.3 14.4 11 14.1 11 13.6 L 11 0.8 C 11 0.3 11.3 0 11.8 0 C 12.3 0 12.6 0.3 12.6 0.8 L 12.6 13.6 C 12.6 14.1 12.3 14.4 11.8 14.4" />
    <path fill="#292929" opacity="0.4" fill-rule="evenodd" d="M 20 24 L 4 24 C 1.8 24 0 22.2 0 20 L 0 16.8 C 0 16.3 0.3 16 0.8 16 C 1.3 16 1.6 16.3 1.6 16.8 L 1.6 20 C 1.6 21.3 2.7 22.4 4 22.4 L 20 22.4 C 21.3 22.4 22.4 21.3 22.4 20 L 22.4 16.8 C 22.4 16.3 22.7 16 23.2 16 C 23.7 16 24 16.3 24 16.8 L 24 20 C 24 22.2 22.3 24 20 24" />
</svg>