<?xml version="1.0" encoding="utf-8"?>
<svg height="27" width="38" version="1.1" id="Layer_1" xmlns="http://www.w3.org/2000/svg" xmlns:xlink="http://www.w3.org/1999/xlink" x="0px" y="0px"
	 viewBox="0 0 38 27" enable-background="new 0 0 38 27" xml:space="preserve">
<path fill="#5595FC" d="M9.1,17.4c-0.3,0.3-0.3,0.8,0,1.1s0.9,0.3,1.2,0l4.8-4.4c0.3-0.3,0.3-0.8,0-1.1l-4.8-4.4
	c-0.3-0.3-0.9-0.3-1.2,0C8.7,9,8.7,9.5,9.1,9.8l4,3.8L9.1,17.4z"/>
<path fill="#5595FC" d="M16.3,17.8c0-0.5,0.4-0.9,0.9-0.9h6.5c0.5,0,0.9,0.4,0.9,0.9l0,0c0,0.5-0.4,0.9-0.9,0.9h-6.5
	C16.7,18.7,16.3,18.3,16.3,17.8L16.3,17.8z"/>
<path fill="none" stroke="#5595FC" stroke-width="2" d="M1.3,6.6C1.3,3.5,3.8,1,6.9,1h24.3c3.1,0,5.6,2.5,5.6,5.6v14
	c0,3.1-2.5,5.6-5.6,5.6H6.9c-3.1,0-5.6-2.5-5.6-5.6V6.6z"/>
</svg>
