<?xml version="1.0" encoding="utf-8"?>
<!-- Generator: Adobe Illustrator 19.2.0, SVG Export Plug-In . SVG Version: 6.00 Build 0)  -->
<svg version="1.1" id="Layer_1" xmlns="http://www.w3.org/2000/svg" xmlns:xlink="http://www.w3.org/1999/xlink" x="0px" y="0px"
	 viewBox="0 0 30 30" style="enable-background:new 0 0 30 30;" xml:space="preserve">
<style type="text/css">
	.st0{fill:none;stroke:#999999;stroke-linecap:round;stroke-linejoin:round;stroke-miterlimit:10;}
</style>
<g>
	<path class="st0" d="M10.5,22L22,10.5c1.7,0.7,3.8,0.4,5.2-1c1.4-1.4,1.8-3.4,1-5.2L26,6.7h-2.5V4l2.3-2.3c-1.7-0.7-3.8-0.4-5.2,1
		c-1.4,1.4-1.8,3.5-1,5.2L8,19.5c-1.7-0.7-3.8-0.4-5.2,1c-1.4,1.4-1.8,3.5-1,5.2L4,23.4h2.7V26l-2.4,2.3c1.7,0.7,3.8,0.4,5.2-1
		C11,25.8,11.3,23.7,10.5,22L10.5,22z"/>
	<path class="st0" d="M15,12.5L10.5,8c0.7-1.7,0.4-3.8-1-5.2C8.1,1.3,6.1,1,4.4,1.7L6.7,4v2.7H4L1.7,4.4C1,6.1,1.3,8.1,2.8,9.6
		s3.5,1.7,5.2,1l4.5,4.5"/>
	<path class="st0" d="M15,17.5l4.5,4.5c-0.7,1.7-0.4,3.8,1,5.2c1.4,1.4,3.5,1.8,5.2,1L23.4,26v-2.5H26l2.3,2.3
		c0.7-1.7,0.4-3.8-1-5.2c-1.4-1.4-3.5-1.8-5.2-1L17.5,15"/>
</g>
</svg>
