<?xml version="1.0" encoding="utf-8"?>
<!-- Generator: Avocode 2.4.5 - http://avocode.com -->
<svg height="23" width="26" xmlns:xlink="http://www.w3.org/1999/xlink" xmlns="http://www.w3.org/2000/svg" viewBox="0 0 26 23">
    <path fill="#292929" opacity="0.4" fill-rule="evenodd" d="M 2.4 1.6 C 1.9 1.6 1.6 1.9 1.6 2.4 L 1.6 20 C 1.6 20.5 1.9 20.8 2.4 20.8 L 23.2 20.8 C 23.7 20.8 24 20.5 24 20 L 24 7.2 C 24 6.7 23.7 6.4 23.2 6.4 L 12 6.4 C 10.7 6.4 9.6 5.3 9.6 4 L 9.6 2.4 C 9.6 1.9 9.3 1.6 8.8 1.6 L 2.4 1.6 L 2.4 1.6 Z M 23.2 22.4 L 2.4 22.4 C 1.1 22.4 0 21.3 0 20 L 0 2.4 C 0 1.1 1.1 0 2.4 0 L 8.8 0 C 10.1 0 11.2 1.1 11.2 2.4 L 11.2 4 C 11.2 4.5 11.5 4.8 12 4.8 L 23.2 4.8 C 24.5 4.8 25.6 5.9 25.6 7.2 L 25.6 20 C 25.6 21.3 24.5 22.4 23.2 22.4 L 23.2 22.4 Z M 23.2 22.4" />
    <path fill="#292929" opacity="0.4" fill-rule="evenodd" d="M 13.8 14.8 L 16.2 14.8 C 16.7 14.8 17 14.5 17 14 C 17 13.5 16.7 13.2 16.2 13.2 L 13.8 13.2 L 13.8 10.8 C 13.8 10.3 13.5 10 13 10 C 12.5 10 12.2 10.3 12.2 10.8 L 12.2 13.2 L 9.8 13.2 C 9.3 13.2 9 13.5 9 14 C 9 14.5 9.3 14.8 9.8 14.8 L 12.2 14.8 L 12.2 17.2 C 12.2 17.7 12.5 18 13 18 C 13.5 18 13.8 17.7 13.8 17.2 L 13.8 14.8 Z M 13.8 14.8" />
</svg>