<?xml version="1.0" encoding="utf-8"?>
<!-- Generator: Avocode 2.4.5 - http://avocode.com -->
<svg height="26" width="27" xmlns:xlink="http://www.w3.org/1999/xlink" xmlns="http://www.w3.org/2000/svg" viewBox="0 0 27 26">
    <path fill="#231f20" fill-rule="evenodd" d="M 13.19 0.26 C 5.91 0.26 0 6.17 0 13.46 C 0 19.29 3.78 24.23 9.02 25.98 C 9.68 26.1 9.92 25.69 9.92 25.34 C 9.92 25.03 9.91 24.2 9.91 23.1 C 6.24 23.89 5.46 21.33 5.46 21.33 C 4.86 19.8 4 19.4 4 19.4 C 2.8 18.58 4.09 18.6 4.09 18.6 C 5.41 18.69 6.11 19.96 6.11 19.96 C 7.29 21.97 9.2 21.39 9.95 21.05 C 10.07 20.2 10.41 19.62 10.79 19.29 C 7.86 18.96 4.78 17.82 4.78 12.77 C 4.78 11.33 5.29 10.15 6.13 9.23 C 6 8.89 5.55 7.55 6.26 5.74 C 6.26 5.74 7.37 5.38 9.89 7.09 C 10.94 6.8 12.07 6.65 13.2 6.64 C 14.32 6.65 15.44 6.8 16.5 7.09 C 19.02 5.38 20.12 5.74 20.12 5.74 C 20.84 7.55 20.39 8.89 20.25 9.23 C 21.1 10.15 21.61 11.33 21.61 12.77 C 21.61 17.84 18.53 18.95 15.59 19.28 C 16.06 19.69 16.48 20.49 16.48 21.72 C 16.48 23.49 16.47 24.91 16.47 25.34 C 16.47 25.69 16.7 26.1 17.37 25.98 C 22.61 24.23 26.39 19.29 26.39 13.46 C 26.39 6.17 20.48 0.26 13.19 0.26" />
</svg>