<?xml version="1.0" encoding="utf-8"?>
<svg height="12" width="19" version="1.1" id="Layer_1" xmlns="http://www.w3.org/2000/svg" xmlns:xlink="http://www.w3.org/1999/xlink" x="0px" y="0px" viewBox="0 0 19 12" enable-background="new 0 0 19 12" xml:space="preserve">
<path d="M6.7,10.5c0.4,0.4,0.4,0.9,0,1.3c-0.4,0.4-0.9,0.4-1.3,0L0.3,6.6c-0.4-0.3-0.4-0.9,0-1.3l5.2-5.1c0.4-0.3,0.9-0.3,1.3,0
	c0.4,0.4,0.4,0.9,0,1.3L2.5,6L6.7,10.5z"/>
<path d="M12.3,1.5c-0.4-0.4-0.4-0.9,0-1.3c0.4-0.4,0.9-0.4,1.3,0l5.2,5.1c0.4,0.3,0.4,0.9,0,1.3l-5.2,5.1c-0.4,0.3-0.9,0.3-1.3,0
	c-0.4-0.4-0.4-0.9,0-1.3L16.5,6L12.3,1.5z"/>
</svg>
